<?xml version="1.0" encoding="utf-8"?>
<svg version="1.1" xmlns:xlink="http://www.w3.org/1999/xlink" width="358px" height="200px" xmlns="http://www.w3.org/2000/svg">
  <g transform="matrix(1 0 0 1 -31 -31 )">
    <path d="M 31 31  L 389 31  L 389 231  L 31 231  L 31 31  " fill-rule="nonzero" fill="#cccccc" stroke="none" />
    <path d="M 45 45  L 375 45  L 375 217  L 45 217  L 45 45  " fill-rule="nonzero" fill="#ffffff" stroke="none" />
    <path d="M 232.16 91  C 223.76 91  217.16 84.4  217.16 76  C 217.16 67.6  223.76 61  232.16 61  C 240.56 61  247.16 67.6  247.16 76  C 247.16 84.4  240.56 91  232.16 91  " fill-rule="nonzero" fill="#cccccc" stroke="none" />
    <path d="M 50 212  L 50 122.9  L 130 82.4  L 242 157.698324022346  L 306 106.7  L 370 157.698324022346  L 370 212  L 50 212  " fill-rule="nonzero" fill="#169bd5" stroke="none" />
  </g>
</svg>