<?xml version="1.0" encoding="utf-8"?>
<svg version="1.1" xmlns:xlink="http://www.w3.org/1999/xlink" width="318px" height="154px" xmlns="http://www.w3.org/2000/svg">
  <defs>
    <mask fill="white" id="clip302">
      <path d="M 51 244  L 51 95  C 51 92.225  53.225 90  56 90  L 364 90  C 366.775 90  369 92.225  369 95  L 369 244  " fill-rule="evenodd" />
    </mask>
  </defs>
  <g transform="matrix(1 0 0 1 -51 -90 )">
    <path d="M 51 90  L 369 90  L 369 244  L 51 244  L 51 90  " fill-rule="nonzero" fill="#cccccc" stroke="none" mask="url(#clip302)" />
    <path d="M 62 101  L 358 101  L 358 233  L 62 233  L 62 101  " fill-rule="nonzero" fill="#ffffff" stroke="none" mask="url(#clip302)" />
    <path d="M 227.91 136.2  C 221.442 136.2  216.36 131.118  216.36 124.65  C 216.36 118.182  221.442 113.1  227.91 113.1  C 234.378 113.1  239.46 118.182  239.46 124.65  C 239.46 131.118  234.378 136.2  227.91 136.2  " fill-rule="nonzero" fill="#cccccc" stroke="none" mask="url(#clip302)" />
    <path d="M 66 229  L 66 160.8  L 138 129.8  L 238.8 192.969811320755  L 296.4 148.4  L 354 192.969811320755  L 354 229  L 66 229  " fill-rule="nonzero" fill="#169bd5" stroke="none" mask="url(#clip302)" />
  </g>
</svg>