<?xml version="1.0" encoding="utf-8"?>
<svg version="1.1" xmlns:xlink="http://www.w3.org/1999/xlink" width="30px" height="30px" xmlns="http://www.w3.org/2000/svg">
  <g transform="matrix(1 0 0 1 -60 -268 )">
    <path d="M 75 268  C 83.4 268  90 274.6  90 283  C 90 291.4  83.4 298  75 298  C 66.6 298  60 291.4  60 283  C 60 274.6  66.6 268  75 268  Z " fill-rule="nonzero" fill="#ffffff" stroke="none" />
    <path d="M 75 268.5  C 83.12 268.5  89.5 274.88  89.5 283  C 89.5 291.12  83.12 297.5  75 297.5  C 66.88 297.5  60.5 291.12  60.5 283  C 60.5 274.88  66.88 268.5  75 268.5  Z " stroke-width="1" stroke="#797979" fill="none" />
  </g>
</svg>