<?xml version="1.0" encoding="utf-8"?>
<svg version="1.1" xmlns:xlink="http://www.w3.org/1999/xlink" width="90px" height="90px" xmlns="http://www.w3.org/2000/svg">
  <defs>
    <mask fill="white" id="clip957">
      <path d="M 65 236  C 62.225 236  60 233.775  60 231  L 60 151  C 60 148.225  62.225 146  65 146  L 150 146  L 150 236  " fill-rule="evenodd" />
    </mask>
  </defs>
  <g transform="matrix(1 0 0 1 -60 -146 )">
    <path d="M 60 146  L 150 146  L 150 236  L 60 236  L 60 146  " fill-rule="nonzero" fill="#cccccc" stroke="none" mask="url(#clip957)" />
    <path d="M 66 152  L 144 152  L 144 230  L 66 230  L 66 152  " fill-rule="nonzero" fill="#ffffff" stroke="none" mask="url(#clip957)" />
    <path d="M 113.55 173  C 109.77 173  106.8 170.03  106.8 166.25  C 106.8 162.47  109.77 159.5  113.55 159.5  C 117.33 159.5  120.3 162.47  120.3 166.25  C 120.3 170.03  117.33 173  113.55 173  " fill-rule="nonzero" fill="#cccccc" stroke="none" mask="url(#clip957)" />
    <path d="M 69 228  L 69 187.85  L 87.25 169.6  L 112.8 184.2  L 127.4 180.55  L 142 184.2  L 142 228  L 69 228  " fill-rule="nonzero" fill="#169bd5" stroke="none" mask="url(#clip957)" />
  </g>
</svg>