<?xml version="1.0" encoding="utf-8"?>
<svg version="1.1" xmlns:xlink="http://www.w3.org/1999/xlink" width="90px" height="90px" xmlns="http://www.w3.org/2000/svg">
  <defs>
    <mask fill="white" id="clip1081">
      <path d="M 270 236  L 270 146  L 355 146  C 357.775 146  360 148.225  360 151  L 360 231  C 360 233.775  357.775 236  355 236  " fill-rule="evenodd" />
    </mask>
  </defs>
  <g transform="matrix(1 0 0 1 -270 -146 )">
    <path d="M 270 146  L 360 146  L 360 236  L 270 236  L 270 146  " fill-rule="nonzero" fill="#cccccc" stroke="none" mask="url(#clip1081)" />
    <path d="M 276 152  L 354 152  L 354 230  L 276 230  L 276 152  " fill-rule="nonzero" fill="#ffffff" stroke="none" mask="url(#clip1081)" />
    <path d="M 323.55 173  C 319.77 173  316.8 170.03  316.8 166.25  C 316.8 162.47  319.77 159.5  323.55 159.5  C 327.33 159.5  330.3 162.47  330.3 166.25  C 330.3 170.03  327.33 173  323.55 173  " fill-rule="nonzero" fill="#cccccc" stroke="none" mask="url(#clip1081)" />
    <path d="M 279 228  L 279 187.85  L 297.25 169.6  L 322.8 184.2  L 337.4 180.55  L 352 184.2  L 352 228  L 279 228  " fill-rule="nonzero" fill="#169bd5" stroke="none" mask="url(#clip1081)" />
  </g>
</svg>