<?xml version="1.0" encoding="utf-8"?>
<svg version="1.1" xmlns:xlink="http://www.w3.org/1999/xlink" width="90px" height="90px" xmlns="http://www.w3.org/2000/svg">
  <defs>
    <mask fill="white" id="clip1214">
      <path d="M 65 308  C 62.225 308  60 305.775  60 303  L 60 223  C 60 220.225  62.225 218  65 218  L 150 218  L 150 308  " fill-rule="evenodd" />
    </mask>
  </defs>
  <g transform="matrix(1 0 0 1 -60 -218 )">
    <path d="M 60 218  L 150 218  L 150 308  L 60 308  L 60 218  " fill-rule="nonzero" fill="#cccccc" stroke="none" mask="url(#clip1214)" />
    <path d="M 66 224  L 144 224  L 144 302  L 66 302  L 66 224  " fill-rule="nonzero" fill="#ffffff" stroke="none" mask="url(#clip1214)" />
    <path d="M 113.55 245  C 109.77 245  106.8 242.03  106.8 238.25  C 106.8 234.47  109.77 231.5  113.55 231.5  C 117.33 231.5  120.3 234.47  120.3 238.25  C 120.3 242.03  117.33 245  113.55 245  " fill-rule="nonzero" fill="#cccccc" stroke="none" mask="url(#clip1214)" />
    <path d="M 69 300  L 69 259.85  L 87.25 241.6  L 112.8 256.2  L 127.4 252.55  L 142 256.2  L 142 300  L 69 300  " fill-rule="nonzero" fill="#169bd5" stroke="none" mask="url(#clip1214)" />
  </g>
</svg>