<?xml version="1.0" encoding="utf-8"?>
<svg version="1.1" xmlns:xlink="http://www.w3.org/1999/xlink" width="16px" height="31px" xmlns="http://www.w3.org/2000/svg">
  <defs>
    <mask fill="white" id="clip474">
      <path d="M 0 30  L 0 0  L 15 0  L 15 13  L 15 30  L 0 30  Z " fill-rule="evenodd" />
    </mask>
  </defs>
  <g transform="matrix(1 0 0 1 -53 -402 )">
    <path d="M 0 30  L 0 0  L 15 0  L 15 13  L 15 30  L 0 30  Z " fill-rule="nonzero" fill="#f2f2f2" stroke="none" transform="matrix(1 0 0 1 53 402 )" />
    <path d="M 0 30  L 0 0  L 15 0  L 15 13  L 15 30  L 0 30  Z " stroke-width="2" stroke="#797979" fill="none" transform="matrix(1 0 0 1 53 402 )" mask="url(#clip474)" />
    <path d="M 14.5527864045 0.89442719099992  L 0.44721359549996 29.1055728090001  M 0.44721359549996 0.89442719099992  L 14.5527864045 29.1055728090001  " stroke-width="1" stroke="#797979" fill="none" transform="matrix(1 0 0 1 53 402 )" />
  </g>
</svg>