<?xml version="1.0" encoding="utf-8"?>
<svg version="1.1" xmlns:xlink="http://www.w3.org/1999/xlink" width="90px" height="90px" xmlns="http://www.w3.org/2000/svg">
  <defs>
    <mask fill="white" id="clip1705">
      <path d="M 166 308  L 166 218  L 256 218  L 256 308  " fill-rule="evenodd" />
    </mask>
  </defs>
  <g transform="matrix(1 0 0 1 -166 -218 )">
    <path d="M 166 218  L 256 218  L 256 308  L 166 308  L 166 218  " fill-rule="nonzero" fill="#cccccc" stroke="none" mask="url(#clip1705)" />
    <path d="M 172 224  L 250 224  L 250 302  L 172 302  L 172 224  " fill-rule="nonzero" fill="#ffffff" stroke="none" mask="url(#clip1705)" />
    <path d="M 219.55 245  C 215.77 245  212.8 242.03  212.8 238.25  C 212.8 234.47  215.77 231.5  219.55 231.5  C 223.33 231.5  226.3 234.47  226.3 238.25  C 226.3 242.03  223.33 245  219.55 245  " fill-rule="nonzero" fill="#cccccc" stroke="none" mask="url(#clip1705)" />
    <path d="M 175 300  L 175 259.85  L 193.25 241.6  L 218.8 256.2  L 233.4 252.55  L 248 256.2  L 248 300  L 175 300  " fill-rule="nonzero" fill="#169bd5" stroke="none" mask="url(#clip1705)" />
  </g>
</svg>