<?xml version="1.0" encoding="utf-8"?>
<svg version="1.1" xmlns:xlink="http://www.w3.org/1999/xlink" width="30px" height="30px" xmlns="http://www.w3.org/2000/svg">
  <g transform="matrix(1 0 0 1 -60 -340 )">
    <path d="M 75 340  C 83.4 340  90 346.6  90 355  C 90 363.4  83.4 370  75 370  C 66.6 370  60 363.4  60 355  C 60 346.6  66.6 340  75 340  Z " fill-rule="nonzero" fill="#ffffff" stroke="none" />
    <path d="M 75 340.5  C 83.12 340.5  89.5 346.88  89.5 355  C 89.5 363.12  83.12 369.5  75 369.5  C 66.88 369.5  60.5 363.12  60.5 355  C 60.5 346.88  66.88 340.5  75 340.5  Z " stroke-width="1" stroke="#797979" fill="none" />
  </g>
</svg>