<?xml version="1.0" encoding="utf-8"?>
<svg version="1.1" xmlns:xlink="http://www.w3.org/1999/xlink" width="15px" height="15px" xmlns="http://www.w3.org/2000/svg">
  <g transform="matrix(1 0 0 1 -244 -183 )">
    <path d="M 3.4375 10.078125  L 3.9453125 9.5703125  L 5.4296875 11.0546875  L 4.921875 11.5625  L 4.375 11.5625  L 4.375 10.625  L 3.4375 10.625  L 3.4375 10.078125  Z M 7.6953125 5.791015625  C 7.80598958333333 5.68033854166667  7.90364583333333 5.67057291666667  7.98828125 5.76171875  C 8.07942708333333 5.84635416666667  8.06966145833333 5.94401041666667  7.958984375 6.0546875  L 5.1171875 8.896484375  C 5.00651041666667 9.00716145833333  4.90885416666667 9.01692708333333  4.82421875 8.92578125  C 4.73307291666667 8.84114583333333  4.74283854166667 8.74348958333333  4.853515625 8.6328125  L 7.6953125 5.791015625  Z M 2.5 12.5  L 5.3125 12.5  L 10.625 7.1875  L 7.8125 4.375  L 2.5 9.6875  L 2.5 12.5  Z M 8.4375 3.75  L 11.25 6.5625  L 12.1484375 5.6640625  C 12.3307291666667 5.48177083333333  12.421875 5.26041666666667  12.421875 5  C 12.421875 4.73958333333333  12.3307291666667 4.51822916666667  12.1484375 4.3359375  L 10.6640625 2.8515625  C 10.4817708333333 2.66927083333333  10.2604166666667 2.578125  10 2.578125  C 9.73958333333334 2.578125  9.51822916666667 2.66927083333333  9.3359375 2.8515625  L 8.4375 3.75  Z M 14.1748046875 0.825195312500001  C 14.7249348958333 1.37532552083333  15 2.03776041666666  15 2.8125  L 15 12.1875  C 15 12.9622395833333  14.7249348958333 13.6246744791667  14.1748046875 14.1748046875  C 13.6246744791667 14.7249348958333  12.9622395833333 15  12.1875 15  L 2.8125 15  C 2.03776041666667 15  1.37532552083333 14.7249348958333  0.8251953125 14.1748046875  C 0.275065104166667 13.6246744791667  0 12.9622395833333  0 12.1875  L 0 2.8125  C 0 2.03776041666666  0.275065104166667 1.37532552083333  0.8251953125 0.825195312500001  C 1.37532552083333 0.275065104166666  2.03776041666667 0  2.8125 0  L 12.1875 0  C 12.9622395833333 0  13.6246744791667 0.275065104166666  14.1748046875 0.825195312500001  Z " fill-rule="nonzero" fill="#333333" stroke="none" transform="matrix(1 0 0 1 244 183 )" />
  </g>
</svg>