<?xml version="1.0" encoding="utf-8"?>
<svg version="1.1" xmlns:xlink="http://www.w3.org/1999/xlink" width="158px" height="148px" xmlns="http://www.w3.org/2000/svg">
  <defs>
    <mask fill="white" id="clip1317">
      <path d="M 47 239  L 47 96  C 47 93.225  49.225 91  52 91  L 200 91  C 202.775 91  205 93.225  205 96  L 205 239  " fill-rule="evenodd" />
    </mask>
  </defs>
  <g transform="matrix(1 0 0 1 -47 -91 )">
    <path d="M 47 91  L 205 91  L 205 239  L 47 239  L 47 91  " fill-rule="nonzero" fill="#cccccc" stroke="none" mask="url(#clip1317)" />
    <path d="M 57 101  L 195 101  L 195 229  L 57 229  L 57 101  " fill-rule="nonzero" fill="#ffffff" stroke="none" mask="url(#clip1317)" />
    <path d="M 140.26 135.4  C 134.044 135.4  129.16 130.516  129.16 124.3  C 129.16 118.084  134.044 113.2  140.26 113.2  C 146.476 113.2  151.36 118.084  151.36 124.3  C 151.36 130.516  146.476 135.4  140.26 135.4  " fill-rule="nonzero" fill="#cccccc" stroke="none" mask="url(#clip1317)" />
    <path d="M 61 226  L 61 159.45  L 93.75 129.2  L 139.6 157.994936708861  L 165.8 147.35  L 192 157.994936708861  L 192 226  L 61 226  " fill-rule="nonzero" fill="#169bd5" stroke="none" mask="url(#clip1317)" />
  </g>
</svg>