<?xml version="1.0" encoding="utf-8"?>
<svg version="1.1" xmlns:xlink="http://www.w3.org/1999/xlink" width="158px" height="102px" xmlns="http://www.w3.org/2000/svg">
  <defs>
    <mask fill="white" id="clip273">
      <path d="M 46 428  L 46 331  C 46 328.225  48.225 326  51 326  L 199 326  C 201.775 326  204 328.225  204 331  L 204 428  " fill-rule="evenodd" />
    </mask>
  </defs>
  <g transform="matrix(1 0 0 1 -46 -326 )">
    <path d="M 46 326  L 204 326  L 204 428  L 46 428  L 46 326  " fill-rule="nonzero" fill="#cccccc" stroke="none" mask="url(#clip273)" />
    <path d="M 53 333  L 197 333  L 197 421  L 53 421  L 53 333  " fill-rule="nonzero" fill="#ffffff" stroke="none" mask="url(#clip273)" />
    <path d="M 135.81 356.6  C 131.526 356.6  128.16 353.234  128.16 348.95  C 128.16 344.666  131.526 341.3  135.81 341.3  C 140.094 341.3  143.46 344.666  143.46 348.95  C 143.46 353.234  140.094 356.6  135.81 356.6  " fill-rule="nonzero" fill="#cccccc" stroke="none" mask="url(#clip273)" />
    <path d="M 56 419  L 56 373.35  L 90.75 352.6  L 139.4 386.850632911392  L 167.2 365.05  L 195 386.850632911392  L 195 419  L 56 419  " fill-rule="nonzero" fill="#169bd5" stroke="none" mask="url(#clip273)" />
  </g>
</svg>