<?xml version="1.0" encoding="utf-8"?>
<svg version="1.1" xmlns:xlink="http://www.w3.org/1999/xlink" width="6px" height="6px" xmlns="http://www.w3.org/2000/svg">
  <g transform="matrix(1 0 0 1 -51 -62 )">
    <path d="M 54 62  C 55.68 62  57 63.32  57 65  C 57 66.68  55.68 68  54 68  C 52.32 68  51 66.68  51 65  C 51 63.32  52.32 62  54 62  Z " fill-rule="nonzero" fill="#ffffff" stroke="none" />
    <path d="M 54 62.5  C 55.4 62.5  56.5 63.6  56.5 65  C 56.5 66.4  55.4 67.5  54 67.5  C 52.6 67.5  51.5 66.4  51.5 65  C 51.5 63.6  52.6 62.5  54 62.5  Z " stroke-width="1" stroke="#797979" fill="none" />
  </g>
</svg>