<?xml version="1.0" encoding="utf-8"?>
<svg version="1.1" xmlns:xlink="http://www.w3.org/1999/xlink" width="163px" height="163px" xmlns="http://www.w3.org/2000/svg">
  <defs>
    <mask fill="white" id="clip952">
      <path d="M 14 345  L 14 187  C 14 184.225  16.225 182  19 182  L 172 182  C 174.775 182  177 184.225  177 187  L 177 345  " fill-rule="evenodd" />
    </mask>
  </defs>
  <g transform="matrix(1 0 0 1 -14 -182 )">
    <path d="M 14 182  L 177 182  L 177 345  L 14 345  L 14 182  " fill-rule="nonzero" fill="#cccccc" stroke="none" mask="url(#clip952)" />
    <path d="M 25 193  L 166 193  L 166 334  L 25 334  L 25 193  " fill-rule="nonzero" fill="#ffffff" stroke="none" mask="url(#clip952)" />
    <path d="M 110.985 230.9  C 104.139 230.9  98.76 225.521  98.76 218.675  C 98.76 211.829  104.139 206.45  110.985 206.45  C 117.831 206.45  123.21 211.829  123.21 218.675  C 123.21 225.521  117.831 230.9  110.985 230.9  " fill-rule="nonzero" fill="#cccccc" stroke="none" mask="url(#clip952)" />
    <path d="M 29 330  L 29 256.85  L 62.25 223.6  L 108.8 250.2  L 135.4 243.55  L 162 250.2  L 162 330  L 29 330  " fill-rule="nonzero" fill="#169bd5" stroke="none" mask="url(#clip952)" />
  </g>
</svg>