<?xml version="1.0" encoding="utf-8"?>
<svg version="1.1" xmlns:xlink="http://www.w3.org/1999/xlink" width="358px" height="170px" xmlns="http://www.w3.org/2000/svg">
  <g transform="matrix(1 0 0 1 -1 -1 )">
    <path d="M 1 1  L 359 1  L 359 171  L 1 171  L 1 1  " fill-rule="nonzero" fill="#cccccc" stroke="none" />
    <path d="M 13 13  L 347 13  L 347 159  L 13 159  L 13 13  " fill-rule="nonzero" fill="#ffffff" stroke="none" />
    <path d="M 199.91 52  C 192.77 52  187.16 46.39  187.16 39.25  C 187.16 32.11  192.77 26.5  199.91 26.5  C 207.05 26.5  212.66 32.11  212.66 39.25  C 212.66 46.39  207.05 52  199.91 52  " fill-rule="nonzero" fill="#cccccc" stroke="none" />
    <path d="M 18 155  L 18 79.65  L 99.25 45.4  L 213 115.966480446927  L 278 65.95  L 343 115.966480446927  L 343 155  L 18 155  " fill-rule="nonzero" fill="#169bd5" stroke="none" />
  </g>
</svg>