<?xml version="1.0" encoding="utf-8"?>
<svg version="1.1" xmlns:xlink="http://www.w3.org/1999/xlink" width="163px" height="200px" xmlns="http://www.w3.org/2000/svg">
  <defs>
    <mask fill="white" id="clip1594">
      <path d="M 184 382  L 184 187  C 184 184.225  186.225 182  189 182  L 342 182  C 344.775 182  347 184.225  347 187  L 347 382  " fill-rule="evenodd" />
    </mask>
  </defs>
  <g transform="matrix(1 0 0 1 -184 -182 )">
    <path d="M 184 182  L 347 182  L 347 382  L 184 382  L 184 182  " fill-rule="nonzero" fill="#cccccc" stroke="none" mask="url(#clip1594)" />
    <path d="M 195 193  L 336 193  L 336 371  L 195 371  L 195 193  " fill-rule="nonzero" fill="#ffffff" stroke="none" mask="url(#clip1594)" />
    <path d="M 280.985 236.45  C 274.139 236.45  268.76 231.071  268.76 224.225  C 268.76 217.379  274.139 212  280.985 212  C 287.831 212  293.21 217.379  293.21 224.225  C 293.21 231.071  287.831 236.45  280.985 236.45  " fill-rule="nonzero" fill="#cccccc" stroke="none" mask="url(#clip1594)" />
    <path d="M 199 367  L 199 273.5  L 232.25 231  L 278.8 265  L 305.4 256.5  L 332 265  L 332 367  L 199 367  " fill-rule="nonzero" fill="#169bd5" stroke="none" mask="url(#clip1594)" />
  </g>
</svg>