<?xml version="1.0" encoding="utf-8"?>
<svg version="1.1" xmlns:xlink="http://www.w3.org/1999/xlink" width="25px" height="25px" xmlns="http://www.w3.org/2000/svg">
  <g transform="matrix(1 0 0 1 -18 -372 )">
    <path d="M 30.5 372  C 37.5 372  43 377.5  43 384.5  C 43 391.5  37.5 397  30.5 397  C 23.5 397  18 391.5  18 384.5  C 18 377.5  23.5 372  30.5 372  Z " fill-rule="nonzero" fill="#ffffff" stroke="none" />
    <path d="M 30.5 372.5  C 37.22 372.5  42.5 377.78  42.5 384.5  C 42.5 391.22  37.22 396.5  30.5 396.5  C 23.78 396.5  18.5 391.22  18.5 384.5  C 18.5 377.78  23.78 372.5  30.5 372.5  Z " stroke-width="1" stroke="#797979" fill="none" />
  </g>
</svg>