<?xml version="1.0" encoding="utf-8"?>
<svg version="1.1" xmlns:xlink="http://www.w3.org/1999/xlink" width="20px" height="16px" xmlns="http://www.w3.org/2000/svg">
  <g transform="matrix(1 0 0 1 -328 -21 )">
    <path d="M 5.40178571428571 11.9545454545455  C 5.61011904761905 12.1666666666667  5.71428571428571 12.4242424242424  5.71428571428571 12.7272727272727  L 5.71428571428571 14.9090909090909  C 5.71428571428571 15.2121212121212  5.61011904761905 15.469696969697  5.40178571428571 15.6818181818182  C 5.19345238095238 15.8939393939394  4.94047619047619 16  4.64285714285714 16  L 1.07142857142857 16  C 0.773809523809524 16  0.520833333333333 15.8939393939394  0.3125 15.6818181818182  C 0.104166666666667 15.469696969697  0 15.2121212121212  0 14.9090909090909  L 0 12.7272727272727  C 0 12.4242424242424  0.104166666666667 12.1666666666667  0.3125 11.9545454545455  C 0.520833333333333 11.7424242424242  0.773809523809524 11.6363636363636  1.07142857142857 11.6363636363636  L 4.64285714285714 11.6363636363636  C 4.94047619047619 11.6363636363636  5.19345238095238 11.7424242424242  5.40178571428571 11.9545454545455  Z M 5.40178571428571 6.13636363636364  C 5.61011904761905 6.34848484848485  5.71428571428571 6.60606060606061  5.71428571428571 6.90909090909091  L 5.71428571428571 9.09090909090909  C 5.71428571428571 9.39393939393939  5.61011904761905 9.65151515151515  5.40178571428571 9.86363636363636  C 5.19345238095238 10.0757575757576  4.94047619047619 10.1818181818182  4.64285714285714 10.1818181818182  L 1.07142857142857 10.1818181818182  C 0.773809523809524 10.1818181818182  0.520833333333333 10.0757575757576  0.3125 9.86363636363636  C 0.104166666666667 9.65151515151515  0 9.39393939393939  0 9.09090909090909  L 0 6.90909090909091  C 0 6.60606060606061  0.104166666666667 6.34848484848485  0.3125 6.13636363636364  C 0.520833333333333 5.92424242424242  0.773809523809524 5.81818181818182  1.07142857142857 5.81818181818182  L 4.64285714285714 5.81818181818182  C 4.94047619047619 5.81818181818182  5.19345238095238 5.92424242424242  5.40178571428571 6.13636363636364  Z M 19.6875 11.9545454545455  C 19.8958333333333 12.1666666666667  20 12.4242424242424  20 12.7272727272727  L 20 14.9090909090909  C 20 15.2121212121212  19.8958333333333 15.469696969697  19.6875 15.6818181818182  C 19.4791666666667 15.8939393939394  19.2261904761905 16  18.9285714285714 16  L 8.21428571428571 16  C 7.91666666666667 16  7.66369047619048 15.8939393939394  7.45535714285714 15.6818181818182  C 7.24702380952381 15.469696969697  7.14285714285714 15.2121212121212  7.14285714285714 14.9090909090909  L 7.14285714285714 12.7272727272727  C 7.14285714285714 12.4242424242424  7.24702380952381 12.1666666666667  7.45535714285714 11.9545454545455  C 7.66369047619048 11.7424242424242  7.91666666666667 11.6363636363636  8.21428571428571 11.6363636363636  L 18.9285714285714 11.6363636363636  C 19.2261904761905 11.6363636363636  19.4791666666667 11.7424242424242  19.6875 11.9545454545455  Z M 5.40178571428571 0.318181818181818  C 5.61011904761905 0.530303030303029  5.71428571428571 0.787878787878787  5.71428571428571 1.09090909090909  L 5.71428571428571 3.27272727272727  C 5.71428571428571 3.57575757575757  5.61011904761905 3.83333333333333  5.40178571428571 4.04545454545455  C 5.19345238095238 4.25757575757576  4.94047619047619 4.36363636363636  4.64285714285714 4.36363636363636  L 1.07142857142857 4.36363636363636  C 0.773809523809524 4.36363636363636  0.520833333333333 4.25757575757576  0.3125 4.04545454545455  C 0.104166666666667 3.83333333333333  0 3.57575757575757  0 3.27272727272727  L 0 1.09090909090909  C 0 0.787878787878787  0.104166666666667 0.530303030303029  0.3125 0.318181818181818  C 0.520833333333333 0.106060606060606  0.773809523809524 0  1.07142857142857 0  L 4.64285714285714 0  C 4.94047619047619 0  5.19345238095238 0.106060606060606  5.40178571428571 0.318181818181818  Z M 19.6875 6.13636363636364  C 19.8958333333333 6.34848484848485  20 6.60606060606061  20 6.90909090909091  L 20 9.09090909090909  C 20 9.39393939393939  19.8958333333333 9.65151515151515  19.6875 9.86363636363636  C 19.4791666666667 10.0757575757576  19.2261904761905 10.1818181818182  18.9285714285714 10  L 8.21428571428571 10  C 7.91666666666667 10.1818181818182  7.66369047619048 10.0757575757576  7.45535714285714 9.86363636363636  C 7.24702380952381 9.65151515151515  7.14285714285714 9.39393939393939  7.14285714285714 9.09090909090909  L 7.14285714285714 6.90909090909091  C 7.14285714285714 6.60606060606061  7.24702380952381 6.34848484848485  7.45535714285714 6.13636363636364  C 7.66369047619048 5.92424242424242  7.91666666666667 5.81818181818182  8.21428571428571 6  L 18.9285714285714 6  C 19.2261904761905 5.81818181818182  19.4791666666667 5.92424242424242  19.6875 6.13636363636364  Z M 19.6875 0.318181818181818  C 19.8958333333333 0.530303030303029  20 0.787878787878787  20 1.09090909090909  L 20 3.27272727272727  C 20 3.57575757575757  19.8958333333333 3.83333333333333  19.6875 4.04545454545455  C 19.4791666666667 4.25757575757576  19.2261904761905 4.36363636363636  18.9285714285714 4.36363636363636  L 8.21428571428571 4.36363636363636  C 7.91666666666667 4.36363636363636  7.66369047619048 4.25757575757576  7.45535714285714 4.04545454545455  C 7.24702380952381 3.83333333333333  7.14285714285714 3.57575757575757  7.14285714285714 3.27272727272727  L 7.14285714285714 1.09090909090909  C 7.14285714285714 0.787878787878787  7.24702380952381 0.530303030303029  7.45535714285714 0.318181818181818  C 7.66369047619048 0.106060606060606  7.91666666666667 0  8.21428571428571 0  L 18.9285714285714 0  C 19.2261904761905 0  19.4791666666667 0.106060606060606  19.6875 0.318181818181818  Z " fill-rule="nonzero" fill="#000000" stroke="none" transform="matrix(1 0 0 1 328 21 )" />
  </g>
</svg>