<?xml version="1.0" encoding="utf-8"?>
<svg version="1.1" xmlns:xlink="http://www.w3.org/1999/xlink" width="20px" height="17px" xmlns="http://www.w3.org/2000/svg">
  <g transform="matrix(1 0 0 1 -328 -20 )">
    <path d="M 8.77403846153846 9.73153409090909  C 9.07852564102564 10.0374053030303  9.23076923076923 10.3996212121212  9.23076923076923 10.8181818181818  L 9.23076923076923 15.4545454545455  C 9.23076923076923 15.8731060606061  9.07852564102564 16.235321969697  8.77403846153846 16.5411931818182  C 8.46955128205128 16.8470643939394  8.10897435897436 17  7.69230769230769 17  L 1.53846153846154 17  C 1.12179487179487 17  0.761217948717949 16.8470643939394  0.456730769230769 16.5411931818182  C 0.15224358974359 16.235321969697  0 15.8731060606061  0 15.4545454545455  L 0 10.8181818181818  C 0 10.3996212121212  0.15224358974359 10.0374053030303  0.456730769230769 9.73153409090909  C 0.761217948717949 9.42566287878788  1.12179487179487 9.27272727272727  1.53846153846154 9.27272727272727  L 7.69230769230769 9.27272727272727  C 8.10897435897436 9.27272727272727  8.46955128205128 9.42566287878788  8.77403846153846 9.73153409090909  Z M 8.77403846153846 0.458806818181818  C 9.07852564102564 0.764678030303029  9.23076923076923 1.12689393939394  9.23076923076923 1.54545454545455  L 9.23076923076923 6.18181818181818  C 9.23076923076923 6.60037878787879  9.07852564102564 6.9625946969697  8.77403846153846 7.26846590909091  C 8.46955128205128 7.57433712121212  8.10897435897436 7.72727272727273  7.69230769230769 7.72727272727273  L 1.53846153846154 7.72727272727273  C 1.12179487179487 7.72727272727273  0.761217948717949 7.57433712121212  0.456730769230769 7.26846590909091  C 0.15224358974359 6.9625946969697  0 6.60037878787879  0 6.18181818181818  L 0 1.54545454545455  C 0 1.12689393939394  0.15224358974359 0.764678030303029  0.456730769230769 0.458806818181818  C 0.761217948717949 0.152935606060605  1.12179487179487 0  1.53846153846154 0  L 7.69230769230769 0  C 8.10897435897436 0  8.46955128205128 0.152935606060605  8.77403846153846 0.458806818181818  Z M 19.5432692307692 9.73153409090909  C 19.8477564102564 10.0374053030303  20 10.3996212121212  20 10.8181818181818  L 20 15.4545454545455  C 20 15.8731060606061  19.8477564102564 16.235321969697  19.5432692307692 16.5411931818182  C 19.2387820512821 16.8470643939394  18.8782051282051 17  18.4615384615385 17  L 12.3076923076923 17  C 11.8910256410256 17  11.5304487179487 16.8470643939394  11.2259615384615 16.5411931818182  C 10.9214743589744 16.235321969697  10.7692307692308 15.8731060606061  10.7692307692308 15.4545454545455  L 10.7692307692308 10.8181818181818  C 10.7692307692308 10.3996212121212  10.9214743589744 10.0374053030303  11.2259615384615 9.73153409090909  C 11.5304487179487 9.42566287878788  11.8910256410256 9.27272727272727  12.3076923076923 9.27272727272727  L 18.4615384615385 9.27272727272727  C 18.8782051282051 9.27272727272727  19.2387820512821 9.42566287878788  19.5432692307692 9.73153409090909  Z M 19.5432692307692 0.458806818181818  C 19.8477564102564 0.764678030303029  20 1.12689393939394  20 1.54545454545455  L 20 6.18181818181818  C 20 6.60037878787879  19.8477564102564 6.9625946969697  19.5432692307692 7.26846590909091  C 19.2387820512821 7.57433712121212  18.8782051282051 7.72727272727273  18.4615384615385 7.72727272727273  L 12.3076923076923 7.72727272727273  C 11.8910256410256 7.72727272727273  11.5304487179487 7.57433712121212  11.2259615384615 7.26846590909091  C 10.9214743589744 6.9625946969697  10.7692307692308 6.60037878787879  10.7692307692308 6.18181818181818  L 10.7692307692308 1.54545454545455  C 10.7692307692308 1.12689393939394  10.9214743589744 0.764678030303029  11.2259615384615 0.458806818181818  C 11.5304487179487 0.152935606060605  11.8910256410256 0  12.3076923076923 0  L 18.4615384615385 0  C 18.8782051282051 0  19.2387820512821 0.152935606060605  19.5432692307692 0.458806818181818  Z " fill-rule="nonzero" fill="#000000" stroke="none" transform="matrix(1 0 0 1 328 20 )" />
  </g>
</svg>