<?xml version="1.0" encoding="utf-8"?>
<svg version="1.1" xmlns:xlink="http://www.w3.org/1999/xlink" width="50px" height="50px" xmlns="http://www.w3.org/2000/svg">
  <g transform="matrix(1 0 0 1 -60 -103 )">
    <path d="M 85 103  C 99 103  110 114  110 128  C 110 142  99 153  85 153  C 71 153  60 142  60 128  C 60 114  71 103  85 103  Z " fill-rule="nonzero" fill="#ffffff" stroke="none" />
    <path d="M 85 103.5  C 98.72 103.5  109.5 114.28  109.5 128  C 109.5 141.72  98.72 152.5  85 152.5  C 71.28 152.5  60.5 141.72  60.5 128  C 60.5 114.28  71.28 103.5  85 103.5  Z " stroke-width="1" stroke="#797979" fill="none" />
  </g>
</svg>