<?xml version="1.0" encoding="utf-8"?>
<svg version="1.1" xmlns:xlink="http://www.w3.org/1999/xlink" width="330px" height="170px" xmlns="http://www.w3.org/2000/svg">
  <g transform="matrix(1 0 0 1 -45 -389 )">
    <path d="M 45 389  L 375 389  L 375 559  L 45 559  L 45 389  " fill-rule="nonzero" fill="#cccccc" stroke="none" />
    <path d="M 57 401  L 363 401  L 363 547  L 57 547  L 57 401  " fill-rule="nonzero" fill="#ffffff" stroke="none" />
    <path d="M 229.35 440  C 222.21 440  216.6 434.39  216.6 427.25  C 216.6 420.11  222.21 414.5  229.35 414.5  C 236.49 414.5  242.1 420.11  242.1 427.25  C 242.1 434.39  236.49 440  229.35 440  " fill-rule="nonzero" fill="#cccccc" stroke="none" />
    <path d="M 62 543  L 62 467.65  L 136.25 433.4  L 240.2 500.654545454545  L 299.6 453.95  L 359 500.654545454545  L 359 543  L 62 543  " fill-rule="nonzero" fill="#169bd5" stroke="none" />
  </g>
</svg>