<?xml version="1.0" encoding="utf-8"?>
<svg version="1.1" xmlns:xlink="http://www.w3.org/1999/xlink" width="90px" height="90px" xmlns="http://www.w3.org/2000/svg">
  <g transform="matrix(1 0 0 1 -70 -801 )">
    <path d="M 70 801  L 160 801  L 160 891  L 70 891  L 70 801  " fill-rule="nonzero" fill="#cccccc" stroke="none" />
    <path d="M 76 807  L 154 807  L 154 885  L 76 885  L 76 807  " fill-rule="nonzero" fill="#ffffff" stroke="none" />
    <path d="M 123.55 828  C 119.77 828  116.8 825.03  116.8 821.25  C 116.8 817.47  119.77 814.5  123.55 814.5  C 127.33 814.5  130.3 817.47  130.3 821.25  C 130.3 825.03  127.33 828  123.55 828  " fill-rule="nonzero" fill="#cccccc" stroke="none" />
    <path d="M 79 883  L 79 842.85  L 97.25 824.6  L 122.8 839.2  L 137.4 835.55  L 152 839.2  L 152 883  L 79 883  " fill-rule="nonzero" fill="#169bd5" stroke="none" />
  </g>
</svg>