<?xml version="1.0" encoding="utf-8"?>
<svg version="1.1" xmlns:xlink="http://www.w3.org/1999/xlink" width="105px" height="105px" xmlns="http://www.w3.org/2000/svg">
  <defs>
    <mask fill="white" id="clip1202">
      <path d="M 15 105  C 12.225 105  10 102.775  10 100  L 10 5  C 10 2.225  12.225 0  15 0  L 115 0  L 115 105  " fill-rule="evenodd" />
    </mask>
  </defs>
  <g transform="matrix(1 0 0 1 -10 0 )">
    <path d="M 10 0  L 115 0  L 115 105  L 10 105  L 10 0  " fill-rule="nonzero" fill="#cccccc" stroke="none" mask="url(#clip1202)" />
    <path d="M 17 7  L 108 7  L 108 98  L 17 98  L 17 7  " fill-rule="nonzero" fill="#ffffff" stroke="none" mask="url(#clip1202)" />
    <path d="M 72.475 31.5  C 68.065 31.5  64.6 28.035  64.6 23.625  C 64.6 19.215  68.065 15.75  72.475 15.75  C 76.885 15.75  80.35 19.215  80.35 23.625  C 80.35 28.035  76.885 31.5  72.475 31.5  " fill-rule="nonzero" fill="#cccccc" stroke="none" mask="url(#clip1202)" />
    <path d="M 20 96  L 20 48.7  L 41.5 27.2  L 71.6 44.4  L 88.8 40.1  L 106 44.4  L 106 96  L 20 96  " fill-rule="nonzero" fill="#169bd5" stroke="none" mask="url(#clip1202)" />
  </g>
</svg>