<?xml version="1.0" encoding="utf-8"?>
<svg version="1.1" xmlns:xlink="http://www.w3.org/1999/xlink" width="105px" height="105px" xmlns="http://www.w3.org/2000/svg">
  <defs>
    <mask fill="white" id="clip1320">
      <path d="M 450 105  L 450 0  L 550 0  C 552.775 0  555 2.225  555 5  L 555 100  C 555 102.775  552.775 105  550 105  " fill-rule="evenodd" />
    </mask>
  </defs>
  <g transform="matrix(1 0 0 1 -450 0 )">
    <path d="M 450 0  L 555 0  L 555 105  L 450 105  L 450 0  " fill-rule="nonzero" fill="#cccccc" stroke="none" mask="url(#clip1320)" />
    <path d="M 457 7  L 548 7  L 548 98  L 457 98  L 457 7  " fill-rule="nonzero" fill="#ffffff" stroke="none" mask="url(#clip1320)" />
    <path d="M 512.475 31.5  C 508.065 31.5  504.6 28.035  504.6 23.625  C 504.6 19.215  508.065 15.75  512.475 15.75  C 516.885 15.75  520.35 19.215  520.35 23.625  C 520.35 28.035  516.885 31.5  512.475 31.5  " fill-rule="nonzero" fill="#cccccc" stroke="none" mask="url(#clip1320)" />
    <path d="M 460 96  L 460 48.7  L 481.5 27.2  L 511.6 44.4  L 528.8 40.1  L 546 44.4  L 546 96  L 460 96  " fill-rule="nonzero" fill="#169bd5" stroke="none" mask="url(#clip1320)" />
  </g>
</svg>