<?xml version="1.0" encoding="utf-8"?>
<svg version="1.1" xmlns:xlink="http://www.w3.org/1999/xlink" width="50px" height="50px" xmlns="http://www.w3.org/2000/svg">
  <g transform="matrix(1 0 0 1 -120 0 )">
    <path d="M 120 0  L 170 0  L 170 50  L 120 50  L 120 0  " fill-rule="nonzero" fill="#cccccc" stroke="none" />
    <path d="M 124 4  L 166 4  L 166 46  L 124 46  L 124 4  " fill-rule="nonzero" fill="#ffffff" stroke="none" />
    <path d="M 149.75 15  C 147.65 15  146 13.35  146 11.25  C 146 9.15  147.65 7.5  149.75 7.5  C 151.85 7.5  153.5 9.15  153.5 11.25  C 153.5 13.35  151.85 15  149.75 15  " fill-rule="nonzero" fill="#cccccc" stroke="none" />
    <path d="M 126 45  L 126 23.55  L 135.75 13.8  L 149.4 21.6  L 157.2 19.65  L 165 21.6  L 165 45  L 126 45  " fill-rule="nonzero" fill="#169bd5" stroke="none" />
  </g>
</svg>