<?xml version="1.0" encoding="utf-8"?>
<svg version="1.1" xmlns:xlink="http://www.w3.org/1999/xlink" width="98px" height="56px" xmlns="http://www.w3.org/2000/svg">
  <defs>
    <mask fill="white" id="clip803">
      <path d="M 11 57  L 11 6  C 11 3.225  13.225 1  16 1  L 104 1  C 106.775 1  109 3.225  109 6  L 109 57  " fill-rule="evenodd" />
    </mask>
  </defs>
  <g transform="matrix(1 0 0 1 -11 -1 )">
    <path d="M 11 1  L 109 1  L 109 57  L 11 57  L 11 1  " fill-rule="nonzero" fill="#cccccc" stroke="none" mask="url(#clip803)" />
    <path d="M 15 5  L 105 5  L 105 53  L 15 53  L 15 5  " fill-rule="nonzero" fill="#ffffff" stroke="none" mask="url(#clip803)" />
    <path d="M 66.16 17.8  C 63.808 17.8  61.96 15.952  61.96 13.6  C 61.96 11.248  63.808 9.4  66.16 9.4  C 68.512 9.4  70.36 11.248  70.36 13.6  C 70.36 15.952  68.512 17.8  66.16 17.8  " fill-rule="nonzero" fill="#cccccc" stroke="none" mask="url(#clip803)" />
    <path d="M 17 52  L 17 27.25  L 38.75 16  L 69.2 36.5714285714286  L 86.6 22.75  L 104 36.5714285714286  L 104 52  L 17 52  " fill-rule="nonzero" fill="#169bd5" stroke="none" mask="url(#clip803)" />
  </g>
</svg>