<?xml version="1.0" encoding="utf-8"?>
<svg version="1.1" xmlns:xlink="http://www.w3.org/1999/xlink" width="70px" height="70px" xmlns="http://www.w3.org/2000/svg">
  <g transform="matrix(1 0 0 1 -123 -216 )">
    <path d="M 123 216  L 193 216  L 193 286  L 123 286  L 123 216  " fill-rule="nonzero" fill="#cccccc" stroke="none" />
    <path d="M 128 221  L 188 221  L 188 281  L 128 281  L 128 221  " fill-rule="nonzero" fill="#ffffff" stroke="none" />
    <path d="M 164.65 237  C 161.71 237  159.4 234.69  159.4 231.75  C 159.4 228.81  161.71 226.5  164.65 226.5  C 167.59 226.5  169.9 228.81  169.9 231.75  C 169.9 234.69  167.59 237  164.65 237  " fill-rule="nonzero" fill="#cccccc" stroke="none" />
    <path d="M 130 279  L 130 248.2  L 144 234.2  L 163.6 245.4  L 174.8 242.6  L 186 245.4  L 186 279  L 130 279  " fill-rule="nonzero" fill="#169bd5" stroke="none" />
  </g>
</svg>