<?xml version="1.0" encoding="utf-8"?>
<svg version="1.1" xmlns:xlink="http://www.w3.org/1999/xlink" width="120px" height="160px" xmlns="http://www.w3.org/2000/svg">
  <g transform="matrix(1 0 0 1 -40 -85 )">
    <path d="M 40 85  L 160 85  L 160 245  L 40 245  L 40 85  " fill-rule="nonzero" fill="#cccccc" stroke="none" />
    <path d="M 48 93  L 152 93  L 152 237  L 48 237  L 48 93  " fill-rule="nonzero" fill="#ffffff" stroke="none" />
    <path d="M 111.4 127  C 106.36 127  102.4 123.04  102.4 118  C 102.4 112.96  106.36 109  111.4 109  C 116.44 109  120.4 112.96  120.4 118  C 120.4 123.04  116.44 127  111.4 127  " fill-rule="nonzero" fill="#cccccc" stroke="none" />
    <path d="M 51 234  L 51 158.1  L 75.5 123.6  L 109.8 151.2  L 129.4 144.3  L 149 151.2  L 149 234  L 51 234  " fill-rule="nonzero" fill="#169bd5" stroke="none" />
  </g>
</svg>