<?xml version="1.0" encoding="utf-8"?>
<svg version="1.1" xmlns:xlink="http://www.w3.org/1999/xlink" width="70px" height="20px" xmlns="http://www.w3.org/2000/svg">
  <defs>
    <mask fill="white" id="clip1498">
      <path d="M 10 20  C 4.40000000000001 20  0 15.6  0 10  C 0 4.39999999999998  4.40000000000001 0  10 0  L 27 0  L 60 0  C 65.6 0  70 4.39999999999998  70 10  C 70 15.6  65.6 20  60 20  L 10 20  Z " fill-rule="evenodd" />
    </mask>
  </defs>
  <g transform="matrix(1 0 0 1 -188 -469 )">
    <path d="M 10 20  C 4.40000000000001 20  0 15.6  0 10  C 0 4.39999999999998  4.40000000000001 0  10 0  L 27 0  L 60 0  C 65.6 0  70 4.39999999999998  70 10  C 70 15.6  65.6 20  60 20  L 10 20  Z " fill-rule="nonzero" fill="#ffffff" stroke="none" transform="matrix(1 0 0 1 188 469 )" />
    <path d="M 10 20  C 4.40000000000001 20  0 15.6  0 10  C 0 4.39999999999998  4.40000000000001 0  10 0  L 27 0  L 60 0  C 65.6 0  70 4.39999999999998  70 10  C 70 15.6  65.6 20  60 20  L 10 20  Z " stroke-width="2" stroke="#797979" fill="none" transform="matrix(1 0 0 1 188 469 )" mask="url(#clip1498)" />
  </g>
</svg>