<?xml version="1.0" encoding="utf-8"?>
<svg version="1.1" xmlns:xlink="http://www.w3.org/1999/xlink" width="12px" height="12px" viewBox="270 506  12 12" xmlns="http://www.w3.org/2000/svg">
  <path d="M 276 506  C 279.36 506  282 508.64  282 512  C 282 515.36  279.36 518  276 518  C 272.64 518  270 515.36  270 512  C 270 508.64  272.64 506  276 506  Z " fill-rule="nonzero" fill="#ffffff" stroke="none" />
  <path d="M 276 506.5  C 279.08 506.5  281.5 508.92  281.5 512  C 281.5 515.08  279.08 517.5  276 517.5  C 272.92 517.5  270.5 515.08  270.5 512  C 270.5 508.92  272.92 506.5  276 506.5  Z " stroke-width="1" stroke="#797979" fill="none" />
  <path d="M 276 515  C 274.32 515  273 513.68  273 512  C 273 510.32  274.32 509  276 509  C 277.68 509  279 510.32  279 512  C 279 513.68  277.68 515  276 515  " fill-rule="nonzero" fill="#797979" stroke="none" />
</svg>