<?xml version="1.0" encoding="utf-8"?>
<svg version="1.1" xmlns:xlink="http://www.w3.org/1999/xlink" width="12px" height="12px" viewBox="187 531  12 12" xmlns="http://www.w3.org/2000/svg">
  <path d="M 193 531  C 196.36 531  199 533.64  199 537  C 199 540.36  196.36 543  193 543  C 189.64 543  187 540.36  187 537  C 187 533.64  189.64 531  193 531  Z " fill-rule="nonzero" fill="#ffffff" stroke="none" />
  <path d="M 193 531.5  C 196.08 531.5  198.5 533.92  198.5 537  C 198.5 540.08  196.08 542.5  193 542.5  C 189.92 542.5  187.5 540.08  187.5 537  C 187.5 533.92  189.92 531.5  193 531.5  Z " stroke-width="1" stroke="#797979" fill="none" />
  <path d="M 193 540  C 191.32 540  190 538.68  190 537  C 190 535.32  191.32 534  193 534  C 194.68 534  196 535.32  196 537  C 196 538.68  194.68 540  193 540  " fill-rule="nonzero" fill="#797979" stroke="none" />
</svg>