<?xml version="1.0" encoding="utf-8"?>
<svg version="1.1" xmlns:xlink="http://www.w3.org/1999/xlink" width="12px" height="12px" viewBox="187 506  12 12" xmlns="http://www.w3.org/2000/svg">
  <path d="M 193 506  C 196.36 506  199 508.64  199 512  C 199 515.36  196.36 518  193 518  C 189.64 518  187 515.36  187 512  C 187 508.64  189.64 506  193 506  Z " fill-rule="nonzero" fill="#ffffff" stroke="none" />
  <path d="M 193 506.5  C 196.08 506.5  198.5 508.92  198.5 512  C 198.5 515.08  196.08 517.5  193 517.5  C 189.92 517.5  187.5 515.08  187.5 512  C 187.5 508.92  189.92 506.5  193 506.5  Z " stroke-width="1" stroke="#797979" fill="none" />
  <path d="M 193 515  C 191.32 515  190 513.68  190 512  C 190 510.32  191.32 509  193 509  C 194.68 509  196 510.32  196 512  C 196 513.68  194.68 515  193 515  " fill-rule="nonzero" fill="#797979" stroke="none" />
</svg>