<?xml version="1.0" encoding="utf-8"?>
<svg version="1.1" xmlns:xlink="http://www.w3.org/1999/xlink" width="25px" height="25px" xmlns="http://www.w3.org/2000/svg">
  <g transform="matrix(1 0 0 1 -65 -125 )">
    <path d="M 77.5 125  C 84.5 125  90 130.5  90 137.5  C 90 144.5  84.5 150  77.5 150  C 70.5 150  65 144.5  65 137.5  C 65 130.5  70.5 125  77.5 125  Z " fill-rule="nonzero" fill="#f2f2f2" stroke="none" />
    <path d="M 77.5 125.5  C 84.22 125.5  89.5 130.78  89.5 137.5  C 89.5 144.22  84.22 149.5  77.5 149.5  C 70.78 149.5  65.5 144.22  65.5 137.5  C 65.5 130.78  70.78 125.5  77.5 125.5  Z " stroke-width="1" stroke="#797979" fill="none" />
  </g>
</svg>