<?xml version="1.0" encoding="utf-8"?>
<svg version="1.1" xmlns:xlink="http://www.w3.org/1999/xlink" width="20px" height="20px" xmlns="http://www.w3.org/2000/svg">
  <g transform="matrix(1 0 0 1 -150 -122 )">
    <path d="M 158.118131381105 129.409830056251  L 160 123.61803398875  L 161.881868618895 129.409830056251  L 167.971723394364 129.409830056251  L 163.044927387734 132.989356881874  L 164.92679600663 138.781152949375  L 160 135.201626123751  L 155.07320399337 138.781152949375  L 156.955072612266 132.989356881874  L 152.028276605636 129.409830056251  L 158.118131381105 129.409830056251  Z " fill-rule="nonzero" fill="#cccccc" stroke="none" />
    <path d="M 157.754860117102 128.909830056251  L 160 122  L 162.245139882898 128.909830056251  L 169.510565162952 128.909830056251  L 163.632712640027 133.180339887499  L 165.877852522925 140.090169943749  L 160 135.819660112501  L 154.122147477075 140.090169943749  L 156.367287359973 133.180339887499  L 150.489434837048 128.909830056251  L 157.754860117102 128.909830056251  Z M 160 125.2360679775  L 158.481402645107 129.909830056251  L 153.567118374224 129.909830056251  L 157.542857864558 132.798373876249  L 156.024260509666 137.472135955  L 160 134.583592135001  L 163.975739490334 137.472135955  L 162.457142135442 132.798373876249  L 166.432881625776 129.909830056251  L 161.518597354893 129.909830056251  L 160 125.2360679775  Z " fill-rule="nonzero" fill="#cccccc" stroke="none" />
  </g>
</svg>