<?xml version="1.0" encoding="utf-8"?>
<svg version="1.1" xmlns:xlink="http://www.w3.org/1999/xlink" width="60px" height="60px" xmlns="http://www.w3.org/2000/svg">
  <g transform="matrix(1 0 0 1 -70 -220 )">
    <path d="M 70 220  L 130 220  L 130 280  L 70 280  L 70 220  " fill-rule="nonzero" fill="#cccccc" stroke="none" />
    <path d="M 74 224  L 126 224  L 126 276  L 74 276  L 74 224  " fill-rule="nonzero" fill="#ffffff" stroke="none" />
    <path d="M 105.7 238  C 103.18 238  101.2 236.02  101.2 233.5  C 101.2 230.98  103.18 229  105.7 229  C 108.22 229  110.2 230.98  110.2 233.5  C 110.2 236.02  108.22 238  105.7 238  " fill-rule="nonzero" fill="#cccccc" stroke="none" />
    <path d="M 76 275  L 76 248.05  L 88.25 235.8  L 105.4 245.6  L 115.2 243.15  L 125 245.6  L 125 275  L 76 275  " fill-rule="nonzero" fill="#169bd5" stroke="none" />
  </g>
</svg>