<?xml version="1.0" encoding="utf-8"?>
<svg version="1.1" xmlns:xlink="http://www.w3.org/1999/xlink" width="330px" height="191px" xmlns="http://www.w3.org/2000/svg">
  <g transform="matrix(1 0 0 1 -45 -170 )">
    <path d="M 45 170  L 375 170  L 375 361  L 45 361  L 45 170  " fill-rule="nonzero" fill="#cccccc" stroke="none" />
    <path d="M 58 183  L 362 183  L 362 348  L 58 348  L 58 183  " fill-rule="nonzero" fill="#ffffff" stroke="none" />
    <path d="M 230.925 227.3  C 222.903 227.3  216.6 220.997  216.6 212.975  C 216.6 204.953  222.903 198.65  230.925 198.65  C 238.947 198.65  245.25 204.953  245.25 212.975  C 245.25 220.997  238.947 227.3  230.925 227.3  " fill-rule="nonzero" fill="#cccccc" stroke="none" />
    <path d="M 63 343  L 63 257.75  L 136.5 219  L 239.4 289.172727272727  L 298.2 242.25  L 357 289.172727272727  L 357 343  L 63 343  " fill-rule="nonzero" fill="#169bd5" stroke="none" />
  </g>
</svg>