<?xml version="1.0" encoding="utf-8"?>
<svg version="1.1" xmlns:xlink="http://www.w3.org/1999/xlink" width="12px" height="12px" xmlns="http://www.w3.org/2000/svg">
  <g transform="matrix(1 0 0 1 -130 -74 )">
    <path d="M 136 75.9071067811865  C 134.8 74.5  133.6 74.5  133 74.5  C 132 74.5  130.5 75.5275862068966  130.5 77.48  C 130.5 82.0475571970105  136 85.3896722192133  136 85.3896722192133  C 136 85.3896722192133  141.5 82.0475571970105  141.5 77.48  C 141.5 75.5275862068966  140 74.5  139 74.5  C 138.4 74.5  137.2 74.5  136 75.9071067811865  Z " fill-rule="nonzero" fill="#666666" stroke="none" />
    <path d="M 136 75.2  C 134.8 74  133.6 74  133 74  C 131.8 74  130 75.2  130 77.48  C 130 82.4  136 86  136 86  C 136 86  142 82.4  142 77.48  C 142 75.2  140.2 74  139 74  C 138.4 74  137.2 74  136 75.2  Z M 136 76.6142135623731  C 137.2 75  138.4 75  139 75  C 139.8 75  141 75.8551724137931  141 77.48  C 141 81.695114394021  136 84.7793444384266  136 84.7793444384266  C 136 84.7793444384266  131 81.695114394021  131 77.48  C 131 75.8551724137931  132.2 75  133 75  C 133.6 75  134.8 75  136 76.6142135623731  Z " fill-rule="nonzero" fill="#797979" stroke="none" />
  </g>
</svg>