<?xml version="1.0" encoding="utf-8"?>
<svg version="1.1" xmlns:xlink="http://www.w3.org/1999/xlink" width="35px" height="35px" xmlns="http://www.w3.org/2000/svg">
  <g transform="matrix(1 0 0 1 -10 -10 )">
    <path d="M 27.5 10  C 37.3 10  45 17.7  45 27.5  C 45 37.3  37.3 45  27.5 45  C 17.7 45  10 37.3  10 27.5  C 10 17.7  17.7 10  27.5 10  Z " fill-rule="nonzero" fill="#f2f2f2" stroke="none" />
    <path d="M 27.5 10.5  C 37.02 10.5  44.5 17.98  44.5 27.5  C 44.5 37.02  37.02 44.5  27.5 44.5  C 17.98 44.5  10.5 37.02  10.5 27.5  C 10.5 17.98  17.98 10.5  27.5 10.5  Z " stroke-width="1" stroke="#797979" fill="none" />
  </g>
</svg>