<?xml version="1.0" encoding="utf-8"?>
<svg version="1.1" xmlns:xlink="http://www.w3.org/1999/xlink" width="80px" height="80px" xmlns="http://www.w3.org/2000/svg">
  <g transform="matrix(1 0 0 1 -49 -144 )">
    <path d="M 49 144  L 129 144  L 129 224  L 49 224  L 49 144  " fill-rule="nonzero" fill="#cccccc" stroke="none" />
    <path d="M 55 150  L 123 150  L 123 218  L 55 218  L 55 150  " fill-rule="nonzero" fill="#ffffff" stroke="none" />
    <path d="M 96.6 168  C 93.24 168  90.6 165.36  90.6 162  C 90.6 158.64  93.24 156  96.6 156  C 99.96 156  102.6 158.64  102.6 162  C 102.6 165.36  99.96 168  96.6 168  " fill-rule="nonzero" fill="#cccccc" stroke="none" />
    <path d="M 57 216  L 57 180.8  L 73 164.8  L 95.4 177.6  L 108.2 174.4  L 121 177.6  L 121 216  L 57 216  " fill-rule="nonzero" fill="#169bd5" stroke="none" />
  </g>
</svg>