<?xml version="1.0" encoding="utf-8"?>
<svg version="1.1" xmlns:xlink="http://www.w3.org/1999/xlink" width="100px" height="100px" xmlns="http://www.w3.org/2000/svg">
  <g transform="matrix(1 0 0 1 -160 -217 )">
    <path d="M 160 217  L 260 217  L 260 317  L 160 317  L 160 217  " fill-rule="nonzero" fill="#cccccc" stroke="none" />
    <path d="M 167 224  L 253 224  L 253 310  L 167 310  L 167 224  " fill-rule="nonzero" fill="#ffffff" stroke="none" />
    <path d="M 219.5 247  C 215.3 247  212 243.7  212 239.5  C 212 235.3  215.3 232  219.5 232  C 223.7 232  227 235.3  227 239.5  C 227 243.7  223.7 247  219.5 247  " fill-rule="nonzero" fill="#cccccc" stroke="none" />
    <path d="M 170 308  L 170 263.45  L 190.25 243.2  L 218.6 259.4  L 234.8 255.35  L 251 259.4  L 251 308  L 170 308  " fill-rule="nonzero" fill="#169bd5" stroke="none" />
  </g>
</svg>