<?xml version="1.0" encoding="utf-8"?>
<svg version="1.1" xmlns:xlink="http://www.w3.org/1999/xlink" width="20px" height="22px" xmlns="http://www.w3.org/2000/svg">
  <g transform="matrix(1 0 0 1 -110 -382 )">
    <path d="M 13.4615384615385 16.7332589285714  C 13.4615384615385 16.8396577380952  13.4254807692308 16.9296875  13.3533653846154 17.0033482142857  L 12.8004807692308 17.5680803571429  C 12.7283653846154 17.6417410714286  12.6402243589744 17.6785714285714  12.5360576923077 17.6785714285714  C 12.431891025641 17.6785714285714  12.3397435897436 17.6417410714286  12.2596153846154 17.5680803571429  L 10 15.2477678571429  L 7.74038461538462 17.5680803571429  C 7.66025641025641 17.6417410714286  7.56810897435898 17.6785714285714  7.46394230769231 17.6785714285714  C 7.35977564102564 17.6785714285714  7.27163461538462 17.6417410714286  7.19951923076923 17.5680803571429  L 6.64663461538462 17.0033482142857  C 6.57451923076923 16.9296875  6.53846153846154 16.8396577380952  6.53846153846154 16.7332589285714  C 6.53846153846154 16.6268601190476  6.57451923076923 16.5327380952381  6.64663461538462 16.4508928571429  L 8.91826923076923 14.1428571428571  L 6.64663461538462 11.8348214285714  C 6.57451923076923 11.7529761904762  6.53846153846154 11.6588541666667  6.53846153846154 11.5524553571429  C 6.53846153846154 11.446056547619  6.57451923076923 11.3560267857143  6.64663461538462 11.2823660714286  L 7.19951923076923 10.7176339285714  C 7.27163461538462 10.6439732142857  7.35977564102564 10.6071428571429  7.46394230769231 10.6071428571429  C 7.56810897435898 10.6071428571429  7.66025641025641 10.6439732142857  7.74038461538462 10.7176339285714  L 10 13.0256696428571  L 12.2596153846154 10.7176339285714  C 12.3397435897436 10.6439732142857  12.431891025641 10.6071428571429  12.5360576923077 10.6071428571429  C 12.6402243589744 10.6071428571429  12.7283653846154 10.6439732142857  12.8004807692308 10.7176339285714  L 13.3533653846154 11.2823660714286  C 13.4254807692308 11.3560267857143  13.4615384615385 11.446056547619  13.4615384615385 11.5524553571429  C 13.4615384615385 11.6588541666667  13.4254807692308 11.7529761904762  13.3533653846154 11.8348214285714  L 11.09375 14.1428571428571  L 13.3533653846154 16.4508928571429  C 13.4254807692308 16.5327380952381  13.4615384615385 16.6268601190476  13.4615384615385 16.7332589285714  Z M 1.53846153846154 8  L 1.53846153846154 20  L 18.4615384615385 20  L 18.4615384615385 8  L 1.53846153846154 8  Z M 6.04567307692308 5.78236607142857  C 6.11778846153846 5.70870535714286  6.15384615384615 5.61458333333333  6.15384615384615 5.5  L 6.15384615384615 1.96428571428571  C 6.15384615384615 1.84970238095238  6.11778846153846 1.75558035714286  6.04567307692308 1.68191964285714  C 5.97355769230769 1.60825892857143  5.88141025641026 1.57142857142857  5.76923076923077 1.57142857142857  L 5 1.57142857142857  C 4.88782051282051 1.57142857142857  4.79567307692308 1.60825892857143  4.72355769230769 1.68191964285714  C 4.65144230769231 1.75558035714286  4.61538461538462 1.84970238095238  4.61538461538462 1.96428571428571  L 4.61538461538462 5.5  C 4.61538461538462 5.61458333333333  4.65144230769231 5.70870535714286  4.72355769230769 5.78236607142857  C 4.79567307692308 5.85602678571429  4.88782051282051 5.89285714285714  5 5.89285714285714  L 5.76923076923077 5.89285714285714  C 5.88141025641026 5.89285714285714  5.97355769230769 5.85602678571429  6.04567307692308 5.78236607142857  Z M 15.2764423076923 5.78236607142857  C 15.3485576923077 5.70870535714286  15.3846153846154 5.61458333333333  15.3846153846154 5.5  L 15.3846153846154 1.96428571428571  C 15.3846153846154 1.84970238095238  15.3485576923077 1.75558035714286  15.2764423076923 1.68191964285714  C 15.2043269230769 1.60825892857143  15.1121794871795 1.57142857142857  15 1.57142857142857  L 14.2307692307692 1.57142857142857  C 14.1185897435897 1.57142857142857  14.0264423076923 1.60825892857143  13.9543269230769 1.68191964285714  C 13.8822115384615 1.75558035714286  13.8461538461538 1.84970238095238  13.8461538461538 1.96428571428571  L 13.8461538461538 5.5  C 13.8461538461538 5.61458333333333  13.8822115384615 5.70870535714286  13.9543269230769 5.78236607142857  C 14.0264423076923 5.85602678571429  14.1185897435897 5.89285714285714  14.2307692307692 5.89285714285714  L 15 5.89285714285714  C 15.1121794871795 5.89285714285714  15.2043269230769 5.85602678571429  15.2764423076923 5.78236607142857  Z M 19.5432692307692 3.609375  C 19.8477564102564 3.92038690476191  20 4.28869047619048  20 4.71428571428571  L 20 20.4285714285714  C 20 20.8541666666667  19.8477564102564 21.2224702380952  19.5432692307692 21.5334821428571  C 19.2387820512821 21.844494047619  18.8782051282051 22  18.4615384615385 22  L 1.53846153846154 22  C 1.12179487179487 22  0.761217948717949 21.844494047619  0.456730769230769 21.5334821428571  C 0.15224358974359 21.2224702380952  0 20.8541666666667  0 20.4285714285714  L 0 4.71428571428571  C 0 4.28869047619048  0.15224358974359 3.92038690476191  0.456730769230769 3.609375  C 0.761217948717949 3.29836309523809  1.12179487179487 3.14285714285714  1.53846153846154 3.14285714285714  L 3.07692307692308 3.14285714285714  L 3.07692307692308 1.96428571428571  C 3.07692307692308 1.42410714285714  3.26522435897436 0.961681547619046  3.64182692307692 0.577008928571429  C 4.01842948717949 0.19233630952381  4.47115384615385 0  5 0  L 5.76923076923077 0  C 6.29807692307692 0  6.75080128205128 0.19233630952381  7.12740384615385 0.577008928571429  C 7.50400641025641 0.961681547619046  7.69230769230769 1.42410714285714  7.69230769230769 1.96428571428571  L 7.69230769230769 3.14285714285714  L 12.3076923076923 3.14285714285714  L 12.3076923076923 1.96428571428571  C 12.3076923076923 1.42410714285714  12.4959935897436 0.961681547619046  12.8725961538462 0.577008928571429  C 13.2491987179487 0.19233630952381  13.7019230769231 0  14.2307692307692 0  L 15 0  C 15.5288461538462 0  15.9815705128205 0.19233630952381  16.3581730769231 0.577008928571429  C 16.7347756410256 0.961681547619046  16.9230769230769 1.42410714285714  16.9230769230769 1.96428571428571  L 16.9230769230769 3.14285714285714  L 18.4615384615385 3.14285714285714  C 18.8782051282051 3.14285714285714  19.2387820512821 3.29836309523809  19.5432692307692 3.609375  Z " fill-rule="nonzero" fill="#333333" stroke="none" transform="matrix(1 0 0 1 110 382 )" />
  </g>
</svg>