<?xml version="1.0" encoding="utf-8"?>
<svg version="1.1" xmlns:xlink="http://www.w3.org/1999/xlink" width="150px" height="84px" xmlns="http://www.w3.org/2000/svg">
  <g transform="matrix(1 0 0 1 -25 -64 )">
    <path d="M 25 64  L 175 64  L 175 148  L 25 148  L 25 64  " fill-rule="nonzero" fill="#cccccc" stroke="none" />
    <path d="M 31 70  L 169 70  L 169 142  L 31 142  L 31 70  " fill-rule="nonzero" fill="#ffffff" stroke="none" />
    <path d="M 109.3 89.2  C 105.772 89.2  103 86.428  103 82.9  C 103 79.372  105.772 76.6  109.3 76.6  C 112.828 76.6  115.6 79.372  115.6 82.9  C 115.6 86.428  112.828 89.2  109.3 89.2  " fill-rule="nonzero" fill="#cccccc" stroke="none" />
    <path d="M 33 140  L 33 102.6  L 66.5 85.6  L 113.4 117.152  L 140.2 95.8  L 167 117.152  L 167 140  L 33 140  " fill-rule="nonzero" fill="#169bd5" stroke="none" />
  </g>
</svg>