<?xml version="1.0" encoding="utf-8"?>
<svg version="1.1" xmlns:xlink="http://www.w3.org/1999/xlink" width="57px" height="70px" xmlns="http://www.w3.org/2000/svg">
  <g transform="matrix(1 0 0 1 -233 -677 )">
    <path d="M 233 677  L 290 677  L 290 747  L 233 747  L 233 677  " fill-rule="nonzero" fill="#cccccc" stroke="none" />
    <path d="M 237 681  L 286 681  L 286 743  L 237 743  L 237 681  " fill-rule="nonzero" fill="#ffffff" stroke="none" />
    <path d="M 266.915 696.05  C 264.521 696.05  262.64 694.169  262.64 691.775  C 262.64 689.381  264.521 687.5  266.915 687.5  C 269.309 687.5  271.19 689.381  271.19 691.775  C 271.19 694.169  269.309 696.05  266.915 696.05  " fill-rule="nonzero" fill="#cccccc" stroke="none" />
    <path d="M 239 742  L 239 709.55  L 250.5 694.8  L 266.6 706.6  L 275.8 703.65  L 285 706.6  L 285 742  L 239 742  " fill-rule="nonzero" fill="#169bd5" stroke="none" />
  </g>
</svg>