<?xml version="1.0" encoding="utf-8"?>
<svg version="1.1" xmlns:xlink="http://www.w3.org/1999/xlink" width="163px" height="99px" xmlns="http://www.w3.org/2000/svg">
  <defs>
    <mask fill="white" id="clip433">
      <path d="M 41 740  L 41 646  C 41 643.225  43.225 641  46 641  L 199 641  C 201.775 641  204 643.225  204 646  L 204 740  " fill-rule="evenodd" />
    </mask>
  </defs>
  <g transform="matrix(1 0 0 1 -41 -641 )">
    <path d="M 41 641  L 204 641  L 204 740  L 41 740  L 41 641  " fill-rule="nonzero" fill="#cccccc" stroke="none" mask="url(#clip433)" />
    <path d="M 48 648  L 197 648  L 197 733  L 48 733  L 48 648  " fill-rule="nonzero" fill="#ffffff" stroke="none" mask="url(#clip433)" />
    <path d="M 133.185 670.7  C 129.027 670.7  125.76 667.433  125.76 663.275  C 125.76 659.117  129.027 655.85  133.185 655.85  C 137.343 655.85  140.61 659.117  140.61 663.275  C 140.61 667.433  137.343 670.7  133.185 670.7  " fill-rule="nonzero" fill="#cccccc" stroke="none" mask="url(#clip433)" />
    <path d="M 51 731  L 51 687  L 87 667  L 137.4 701.846625766871  L 166.2 679  L 195 701.846625766871  L 195 731  L 51 731  " fill-rule="nonzero" fill="#169bd5" stroke="none" mask="url(#clip433)" />
  </g>
</svg>