<?xml version="1.0" encoding="utf-8"?>
<svg version="1.1" xmlns:xlink="http://www.w3.org/1999/xlink" width="40px" height="23px" xmlns="http://www.w3.org/2000/svg">
  <g transform="matrix(1 0 0 1 -40 -370 )">
    <path d="M 40 370  L 80 370  L 80 393  L 40 393  L 40 370  " fill-rule="nonzero" fill="#cccccc" stroke="none" />
    <path d="M 42 372  L 78 372  L 78 391  L 42 391  L 42 372  " fill-rule="nonzero" fill="#ffffff" stroke="none" />
    <path d="M 62.525 376.9  C 61.559 376.9  60.8 376.141  60.8 375.175  C 60.8 374.209  61.559 373.45  62.525 373.45  C 63.491 373.45  64.25 374.209  64.25 375.175  C 64.25 376.141  63.491 376.9  62.525 376.9  " fill-rule="nonzero" fill="#cccccc" stroke="none" />
    <path d="M 43 391  L 43 381.1  L 51.75 376.6  L 64 384.79  L 71 379.3  L 78 384.79  L 78 391  L 43 391  " fill-rule="nonzero" fill="#169bd5" stroke="none" />
  </g>
</svg>