<?xml version="1.0" encoding="utf-8"?>
<svg version="1.1" xmlns:xlink="http://www.w3.org/1999/xlink" width="125px" height="125px" xmlns="http://www.w3.org/2000/svg">
  <defs>
    <mask fill="white" id="clip683">
      <path d="M 6 126  C 3.225 126  1 123.775  1 121  L 1 6  C 1 3.225  3.225 1  6 1  L 126 1  L 126 126  " fill-rule="evenodd" />
    </mask>
  </defs>
  <g transform="matrix(1 0 0 1 -1 -1 )">
    <path d="M 1 1  L 126 1  L 126 126  L 1 126  L 1 1  " fill-rule="nonzero" fill="#cccccc" stroke="none" mask="url(#clip683)" />
    <path d="M 10 10  L 117 10  L 117 117  L 10 117  L 10 10  " fill-rule="nonzero" fill="#ffffff" stroke="none" mask="url(#clip683)" />
    <path d="M 75.375 38.5  C 70.125 38.5  66 34.375  66 29.125  C 66 23.875  70.125 19.75  75.375 19.75  C 80.625 19.75  84.75 23.875  84.75 29.125  C 84.75 34.375  80.625 38.5  75.375 38.5  " fill-rule="nonzero" fill="#cccccc" stroke="none" mask="url(#clip683)" />
    <path d="M 13 114  L 13 58.45  L 38.25 33.2  L 73.6 53.4  L 93.8 48.35  L 114 53.4  L 114 114  L 13 114  " fill-rule="nonzero" fill="#169bd5" stroke="none" mask="url(#clip683)" />
  </g>
</svg>