<?xml version="1.0" encoding="utf-8"?>
<svg version="1.1" xmlns:xlink="http://www.w3.org/1999/xlink" width="153px" height="87px" xmlns="http://www.w3.org/2000/svg">
  <defs>
    <mask fill="white" id="clip181">
      <path d="M 51 178  L 51 96  C 51 93.225  53.225 91  56 91  L 199 91  C 201.775 91  204 93.225  204 96  L 204 178  " fill-rule="evenodd" />
    </mask>
  </defs>
  <g transform="matrix(1 0 0 1 -51 -91 )">
    <path d="M 51 91  L 204 91  L 204 178  L 51 178  L 51 91  " fill-rule="nonzero" fill="#cccccc" stroke="none" mask="url(#clip181)" />
    <path d="M 57 97  L 198 97  L 198 172  L 57 172  L 57 97  " fill-rule="nonzero" fill="#ffffff" stroke="none" mask="url(#clip181)" />
    <path d="M 137.085 117.1  C 133.431 117.1  130.56 114.229  130.56 110.575  C 130.56 106.921  133.431 104.05  137.085 104.05  C 140.739 104.05  143.61 106.921  143.61 110.575  C 143.61 114.229  140.739 117.1  137.085 117.1  " fill-rule="nonzero" fill="#cccccc" stroke="none" mask="url(#clip181)" />
    <path d="M 59 170  L 59 130.95  L 93.25 113.2  L 141.2 145.776470588235  L 168.6 123.85  L 196 145.776470588235  L 196 170  L 59 170  " fill-rule="nonzero" fill="#169bd5" stroke="none" mask="url(#clip181)" />
  </g>
</svg>