<?xml version="1.0" encoding="utf-8"?>
<svg version="1.1" xmlns:xlink="http://www.w3.org/1999/xlink" width="358px" height="219px" xmlns="http://www.w3.org/2000/svg">
  <g transform="matrix(1 0 0 1 -31 -31 )">
    <path d="M 31 31  L 389 31  L 389 250  L 31 250  L 31 31  " fill-rule="nonzero" fill="#cccccc" stroke="none" />
    <path d="M 46 46  L 374 46  L 374 235  L 46 235  L 46 46  " fill-rule="nonzero" fill="#ffffff" stroke="none" />
    <path d="M 233.585 96.7  C 224.387 96.7  217.16 89.473  217.16 80.275  C 217.16 71.077  224.387 63.85  233.585 63.85  C 242.783 63.85  250.01 71.077  250.01 80.275  C 250.01 89.473  242.783 96.7  233.585 96.7  " fill-rule="nonzero" fill="#cccccc" stroke="none" />
    <path d="M 52 230  L 52 132.1  L 131.25 87.6  L 242.2 164.667039106145  L 305.6 114.3  L 369 164.667039106145  L 369 230  L 52 230  " fill-rule="nonzero" fill="#169bd5" stroke="none" />
  </g>
</svg>