<?xml version="1.0" encoding="utf-8"?>
<svg version="1.1" xmlns:xlink="http://www.w3.org/1999/xlink" width="358px" height="270px" xmlns="http://www.w3.org/2000/svg">
  <g transform="matrix(1 0 0 1 -31 -31 )">
    <path d="M 31 31  L 389 31  L 389 301  L 31 301  L 31 31  " fill-rule="nonzero" fill="#cccccc" stroke="none" />
    <path d="M 50 50  L 370 50  L 370 282  L 50 282  L 50 50  " fill-rule="nonzero" fill="#ffffff" stroke="none" />
    <path d="M 237.41 112  C 226.07 112  217.16 103.09  217.16 91.75  C 217.16 80.41  226.07 71.5  237.41 71.5  C 248.75 71.5  257.66 80.41  257.66 91.75  C 257.66 103.09  248.75 112  237.41 112  " fill-rule="nonzero" fill="#cccccc" stroke="none" />
    <path d="M 57 275  L 57 155.1  L 133.5 100.6  L 240.6 176.351955307263  L 301.8 133.3  L 363 176.351955307263  L 363 275  L 57 275  " fill-rule="nonzero" fill="#169bd5" stroke="none" />
  </g>
</svg>