<?xml version="1.0" encoding="utf-8"?>
<svg version="1.1" xmlns:xlink="http://www.w3.org/1999/xlink" width="90px" height="90px" xmlns="http://www.w3.org/2000/svg">
  <g transform="matrix(1 0 0 1 -55 -535 )">
    <path d="M 55 535  L 145 535  L 145 625  L 55 625  L 55 535  " fill-rule="nonzero" fill="#cccccc" stroke="none" />
    <path d="M 61 541  L 139 541  L 139 619  L 61 619  L 61 541  " fill-rule="nonzero" fill="#ffffff" stroke="none" />
    <path d="M 108.55 562  C 104.77 562  101.8 559.03  101.8 555.25  C 101.8 551.47  104.77 548.5  108.55 548.5  C 112.33 548.5  115.3 551.47  115.3 555.25  C 115.3 559.03  112.33 562  108.55 562  " fill-rule="nonzero" fill="#cccccc" stroke="none" />
    <path d="M 64 617  L 64 576.85  L 82.25 558.6  L 107.8 573.2  L 122.4 569.55  L 137 573.2  L 137 617  L 64 617  " fill-rule="nonzero" fill="#169bd5" stroke="none" />
  </g>
</svg>