<?xml version="1.0" encoding="utf-8"?>
<svg version="1.1" xmlns:xlink="http://www.w3.org/1999/xlink" width="100px" height="100px" xmlns="http://www.w3.org/2000/svg">
  <defs>
    <mask fill="white" id="clip475">
      <path d="M 45 224  L 45 129  C 45 126.225  47.225 124  50 124  L 145 124  L 145 224  " fill-rule="evenodd" />
    </mask>
  </defs>
  <g transform="matrix(1 0 0 1 -45 -124 )">
    <path d="M 45 124  L 145 124  L 145 224  L 45 224  L 45 124  " fill-rule="nonzero" fill="#cccccc" stroke="none" mask="url(#clip475)" />
    <path d="M 52 131  L 138 131  L 138 217  L 52 217  L 52 131  " fill-rule="nonzero" fill="#ffffff" stroke="none" mask="url(#clip475)" />
    <path d="M 104.5 154  C 100.3 154  97 150.7  97 146.5  C 97 142.3  100.3 139  104.5 139  C 108.7 139  112 142.3  112 146.5  C 112 150.7  108.7 154  104.5 154  " fill-rule="nonzero" fill="#cccccc" stroke="none" mask="url(#clip475)" />
    <path d="M 55 215  L 55 170.45  L 75.25 150.2  L 103.6 166.4  L 119.8 162.35  L 136 166.4  L 136 215  L 55 215  " fill-rule="nonzero" fill="#169bd5" stroke="none" mask="url(#clip475)" />
  </g>
</svg>