<?xml version="1.0" encoding="utf-8"?>
<svg version="1.1" xmlns:xlink="http://www.w3.org/1999/xlink" width="100px" height="100px" xmlns="http://www.w3.org/2000/svg">
  <defs>
    <mask fill="white" id="clip476">
      <path d="M 160 224  L 160 124  L 260 124  L 260 224  " fill-rule="evenodd" />
    </mask>
  </defs>
  <g transform="matrix(1 0 0 1 -160 -124 )">
    <path d="M 160 124  L 260 124  L 260 224  L 160 224  L 160 124  " fill-rule="nonzero" fill="#cccccc" stroke="none" mask="url(#clip476)" />
    <path d="M 167 131  L 253 131  L 253 217  L 167 217  L 167 131  " fill-rule="nonzero" fill="#ffffff" stroke="none" mask="url(#clip476)" />
    <path d="M 219.5 154  C 215.3 154  212 150.7  212 146.5  C 212 142.3  215.3 139  219.5 139  C 223.7 139  227 142.3  227 146.5  C 227 150.7  223.7 154  219.5 154  " fill-rule="nonzero" fill="#cccccc" stroke="none" mask="url(#clip476)" />
    <path d="M 170 215  L 170 170.45  L 190.25 150.2  L 218.6 166.4  L 234.8 162.35  L 251 166.4  L 251 215  L 170 215  " fill-rule="nonzero" fill="#169bd5" stroke="none" mask="url(#clip476)" />
  </g>
</svg>