<?xml version="1.0" encoding="utf-8"?>
<svg version="1.1" xmlns:xlink="http://www.w3.org/1999/xlink" width="40px" height="40px" xmlns="http://www.w3.org/2000/svg">
  <g transform="matrix(1 0 0 1 -70 -342 )">
    <path d="M 70 342  L 110 342  L 110 382  L 70 382  L 70 342  " fill-rule="nonzero" fill="#cccccc" stroke="none" />
    <path d="M 73 345  L 107 345  L 107 379  L 73 379  L 73 345  " fill-rule="nonzero" fill="#ffffff" stroke="none" />
    <path d="M 93.8 354  C 92.12 354  90.8 352.68  90.8 351  C 90.8 349.32  92.12 348  93.8 348  C 95.48 348  96.8 349.32  96.8 351  C 96.8 352.68  95.48 354  93.8 354  " fill-rule="nonzero" fill="#cccccc" stroke="none" />
    <path d="M 74 378  L 74 360.4  L 82 352.4  L 93.2 358.8  L 99.6 357.2  L 106 358.8  L 106 378  L 74 378  " fill-rule="nonzero" fill="#169bd5" stroke="none" />
  </g>
</svg>