<?xml version="1.0" encoding="utf-8"?>
<svg version="1.1" xmlns:xlink="http://www.w3.org/1999/xlink" width="100px" height="100px" xmlns="http://www.w3.org/2000/svg">
  <defs>
    <mask fill="white" id="clip437">
      <path d="M 45 259  L 45 164  C 45 161.225  47.225 159  50 159  L 145 159  L 145 259  " fill-rule="evenodd" />
    </mask>
  </defs>
  <g transform="matrix(1 0 0 1 -45 -159 )">
    <path d="M 45 159  L 145 159  L 145 259  L 45 259  L 45 159  " fill-rule="nonzero" fill="#cccccc" stroke="none" mask="url(#clip437)" />
    <path d="M 52 166  L 138 166  L 138 252  L 52 252  L 52 166  " fill-rule="nonzero" fill="#ffffff" stroke="none" mask="url(#clip437)" />
    <path d="M 104.5 189  C 100.3 189  97 185.7  97 181.5  C 97 177.3  100.3 174  104.5 174  C 108.7 174  112 177.3  112 181.5  C 112 185.7  108.7 189  104.5 189  " fill-rule="nonzero" fill="#cccccc" stroke="none" mask="url(#clip437)" />
    <path d="M 55 250  L 55 205.45  L 75.25 185.2  L 103.6 201.4  L 119.8 197.35  L 136 201.4  L 136 250  L 55 250  " fill-rule="nonzero" fill="#169bd5" stroke="none" mask="url(#clip437)" />
  </g>
</svg>