<?xml version="1.0" encoding="utf-8"?>
<svg version="1.1" xmlns:xlink="http://www.w3.org/1999/xlink" width="100px" height="100px" xmlns="http://www.w3.org/2000/svg">
  <defs>
    <mask fill="white" id="clip1222">
      <path d="M 275 259  L 275 159  L 370 159  C 372.775 159  375 161.225  375 164  L 375 254  C 375 256.775  372.775 259  370 259  " fill-rule="evenodd" />
    </mask>
  </defs>
  <g transform="matrix(1 0 0 1 -275 -159 )">
    <path d="M 275 159  L 375 159  L 375 259  L 275 259  L 275 159  " fill-rule="nonzero" fill="#cccccc" stroke="none" mask="url(#clip1222)" />
    <path d="M 282 166  L 368 166  L 368 252  L 282 252  L 282 166  " fill-rule="nonzero" fill="#ffffff" stroke="none" mask="url(#clip1222)" />
    <path d="M 334.5 189  C 330.3 189  327 185.7  327 181.5  C 327 177.3  330.3 174  334.5 174  C 338.7 174  342 177.3  342 181.5  C 342 185.7  338.7 189  334.5 189  " fill-rule="nonzero" fill="#cccccc" stroke="none" mask="url(#clip1222)" />
    <path d="M 285 250  L 285 205.45  L 305.25 185.2  L 333.6 201.4  L 349.8 197.35  L 366 201.4  L 366 250  L 285 250  " fill-rule="nonzero" fill="#169bd5" stroke="none" mask="url(#clip1222)" />
  </g>
</svg>