<?xml version="1.0" encoding="utf-8"?>
<svg version="1.1" xmlns:xlink="http://www.w3.org/1999/xlink" width="100px" height="100px" xmlns="http://www.w3.org/2000/svg">
  <defs>
    <mask fill="white" id="clip961">
      <path d="M 160 259  L 160 159  L 260 159  L 260 259  " fill-rule="evenodd" />
    </mask>
  </defs>
  <g transform="matrix(1 0 0 1 -160 -159 )">
    <path d="M 160 159  L 260 159  L 260 259  L 160 259  L 160 159  " fill-rule="nonzero" fill="#cccccc" stroke="none" mask="url(#clip961)" />
    <path d="M 167 166  L 253 166  L 253 252  L 167 252  L 167 166  " fill-rule="nonzero" fill="#ffffff" stroke="none" mask="url(#clip961)" />
    <path d="M 219.5 189  C 215.3 189  212 185.7  212 181.5  C 212 177.3  215.3 174  219.5 174  C 223.7 174  227 177.3  227 181.5  C 227 185.7  223.7 189  219.5 189  " fill-rule="nonzero" fill="#cccccc" stroke="none" mask="url(#clip961)" />
    <path d="M 170 250  L 170 205.45  L 190.25 185.2  L 218.6 201.4  L 234.8 197.35  L 251 201.4  L 251 250  L 170 250  " fill-rule="nonzero" fill="#169bd5" stroke="none" mask="url(#clip961)" />
  </g>
</svg>