<?xml version="1.0" encoding="utf-8"?>
<svg version="1.1" xmlns:xlink="http://www.w3.org/1999/xlink" width="40px" height="40px" xmlns="http://www.w3.org/2000/svg">
  <g transform="matrix(1 0 0 1 -70 -553 )">
    <path d="M 70 553  L 110 553  L 110 593  L 70 593  L 70 553  " fill-rule="nonzero" fill="#cccccc" stroke="none" />
    <path d="M 73 556  L 107 556  L 107 590  L 73 590  L 73 556  " fill-rule="nonzero" fill="#ffffff" stroke="none" />
    <path d="M 93.8 565  C 92.12 565  90.8 563.68  90.8 562  C 90.8 560.32  92.12 559  93.8 559  C 95.48 559  96.8 560.32  96.8 562  C 96.8 563.68  95.48 565  93.8 565  " fill-rule="nonzero" fill="#cccccc" stroke="none" />
    <path d="M 74 589  L 74 571.4  L 82 563.4  L 93.2 569.8  L 99.6 568.2  L 106 569.8  L 106 589  L 74 589  " fill-rule="nonzero" fill="#169bd5" stroke="none" />
  </g>
</svg>