<?xml version="1.0" encoding="utf-8"?>
<svg version="1.1" xmlns:xlink="http://www.w3.org/1999/xlink" width="148px" height="104px" xmlns="http://www.w3.org/2000/svg">
  <defs>
    <mask fill="white" id="clip655">
      <path d="M 1 105  L 1 6  C 1 3.225  3.225 1  6 1  L 144 1  C 146.775 1  149 3.225  149 6  L 149 105  " fill-rule="evenodd" />
    </mask>
  </defs>
  <g transform="matrix(1 0 0 1 -1 -1 )">
    <path d="M 1 1  L 149 1  L 149 105  L 1 105  L 1 1  " fill-rule="nonzero" fill="#cccccc" stroke="none" mask="url(#clip655)" />
    <path d="M 8 8  L 142 8  L 142 98  L 8 98  L 8 8  " fill-rule="nonzero" fill="#ffffff" stroke="none" mask="url(#clip655)" />
    <path d="M 85.76 32.2  C 81.392 32.2  77.96 28.768  77.96 24.4  C 77.96 20.032  81.392 16.6  85.76 16.6  C 90.128 16.6  93.56 20.032  93.56 24.4  C 93.56 28.768  90.128 32.2  85.76 32.2  " fill-rule="nonzero" fill="#cccccc" stroke="none" mask="url(#clip655)" />
    <path d="M 11 96  L 11 49.25  L 43.25 28  L 88.4 60.1621621621622  L 114.2 40.75  L 140 60.1621621621622  L 140 96  L 11 96  " fill-rule="nonzero" fill="#169bd5" stroke="none" mask="url(#clip655)" />
  </g>
</svg>