<?xml version="1.0" encoding="utf-8"?>
<svg version="1.1" xmlns:xlink="http://www.w3.org/1999/xlink" width="340px" height="40px" xmlns="http://www.w3.org/2000/svg">
  <defs>
    <mask fill="white" id="clip1485">
      <path d="M 20 40  C 8.8 40  0 31.2  0 20  C 0 8.79999999999995  8.8 0  20 0  L 203 0  L 320 0  C 331.2 0  340 8.79999999999995  340 20  C 340 31.2  331.2 40  320 40  L 20 40  Z " fill-rule="evenodd" />
    </mask>
  </defs>
  <g transform="matrix(1 0 0 1 -40 -979 )">
    <path d="M 20 40  C 8.8 40  0 31.2  0 20  C 0 8.79999999999995  8.8 0  20 0  L 203 0  L 320 0  C 331.2 0  340 8.79999999999995  340 20  C 340 31.2  331.2 40  320 40  L 20 40  Z " fill-rule="nonzero" fill="#ffffff" stroke="none" transform="matrix(1 0 0 1 40 979 )" />
    <path d="M 20 40  C 8.8 40  0 31.2  0 20  C 0 8.79999999999995  8.8 0  20 0  L 203 0  L 320 0  C 331.2 0  340 8.79999999999995  340 20  C 340 31.2  331.2 40  320 40  L 20 40  Z " stroke-width="2" stroke="#797979" fill="none" transform="matrix(1 0 0 1 40 979 )" mask="url(#clip1485)" />
  </g>
</svg>