<?xml version="1.0" encoding="utf-8"?>
<svg version="1.1" xmlns:xlink="http://www.w3.org/1999/xlink" width="303px" height="197px" xmlns="http://www.w3.org/2000/svg">
  <defs>
    <mask fill="white" id="clip483">
      <path d="M 18 200  L 18 8  C 18 5.225  20.225 3  23 3  L 316 3  C 318.775 3  321 5.225  321 8  L 321 200  " fill-rule="evenodd" />
    </mask>
  </defs>
  <g transform="matrix(1 0 0 1 -18 -3 )">
    <path d="M 18 3  L 321 3  L 321 200  L 18 200  L 18 3  " fill-rule="nonzero" fill="#cccccc" stroke="none" mask="url(#clip483)" />
    <path d="M 32 17  L 307 17  L 307 186  L 32 186  L 32 17  " fill-rule="nonzero" fill="#ffffff" stroke="none" mask="url(#clip483)" />
    <path d="M 190.335 62.1  C 182.061 62.1  175.56 55.599  175.56 47.325  C 175.56 39.051  182.061 32.55  190.335 32.55  C 198.609 32.55  205.11 39.051  205.11 47.325  C 205.11 55.599  198.609 62.1  190.335 62.1  " fill-rule="nonzero" fill="#cccccc" stroke="none" mask="url(#clip483)" />
    <path d="M 37 181  L 37 93.55  L 103.25 53.8  L 196 118.974257425743  L 249 77.65  L 302 118.974257425743  L 302 181  L 37 181  " fill-rule="nonzero" fill="#169bd5" stroke="none" mask="url(#clip483)" />
  </g>
</svg>