<?xml version="1.0" encoding="utf-8"?>
<svg version="1.1" xmlns:xlink="http://www.w3.org/1999/xlink" width="148px" height="178px" xmlns="http://www.w3.org/2000/svg">
  <defs>
    <mask fill="white" id="clip948">
      <path d="M 21 180  C 18.225 180  16 177.775  16 175  L 16 7  C 16 4.225  18.225 2  21 2  L 159 2  C 161.775 2  164 4.225  164 7  L 164 175  C 164 177.775  161.775 180  159 180  " fill-rule="evenodd" />
    </mask>
  </defs>
  <g transform="matrix(1 0 0 1 -16 -2 )">
    <path d="M 16 2  L 164 2  L 164 180  L 16 180  L 16 2  " fill-rule="nonzero" fill="#cccccc" stroke="none" mask="url(#clip948)" />
    <path d="M 26 12  L 154 12  L 154 170  L 26 170  L 26 12  " fill-rule="nonzero" fill="#ffffff" stroke="none" mask="url(#clip948)" />
    <path d="M 104.06 50.9  C 97.844 50.9  92.96 46.016  92.96 39.8  C 92.96 33.584  97.844 28.7  104.06 28.7  C 110.276 28.7  115.16 33.584  115.16 39.8  C 115.16 46.016  110.276 50.9  104.06 50.9  " fill-rule="nonzero" fill="#cccccc" stroke="none" mask="url(#clip948)" />
    <path d="M 30 167  L 30 83.95  L 60.25 46.2  L 102.6 76.4  L 126.8 68.85  L 151 76.4  L 151 167  L 30 167  " fill-rule="nonzero" fill="#169bd5" stroke="none" mask="url(#clip948)" />
  </g>
</svg>