<?xml version="1.0" encoding="utf-8"?>
<svg version="1.1" xmlns:xlink="http://www.w3.org/1999/xlink" width="303px" height="163px" xmlns="http://www.w3.org/2000/svg">
  <defs>
    <mask fill="white" id="clip1358">
      <path d="M 18 432  L 18 274  C 18 271.225  20.225 269  23 269  L 316 269  C 318.775 269  321 271.225  321 274  L 321 432  " fill-rule="evenodd" />
    </mask>
  </defs>
  <g transform="matrix(1 0 0 1 -18 -269 )">
    <path d="M 18 269  L 321 269  L 321 432  L 18 432  L 18 269  " fill-rule="nonzero" fill="#cccccc" stroke="none" mask="url(#clip1358)" />
    <path d="M 29 280  L 310 280  L 310 421  L 29 421  L 29 280  " fill-rule="nonzero" fill="#ffffff" stroke="none" mask="url(#clip1358)" />
    <path d="M 187.785 317.9  C 180.939 317.9  175.56 312.521  175.56 305.675  C 175.56 298.829  180.939 293.45  187.785 293.45  C 194.631 293.45  200.01 298.829  200.01 305.675  C 200.01 312.521  194.631 317.9  187.785 317.9  " fill-rule="nonzero" fill="#cccccc" stroke="none" mask="url(#clip1358)" />
    <path d="M 33 417  L 33 343.85  L 101.25 310.6  L 196.8 374.071287128713  L 251.4 330.55  L 306 374.071287128713  L 306 417  L 33 417  " fill-rule="nonzero" fill="#169bd5" stroke="none" mask="url(#clip1358)" />
  </g>
</svg>