<?xml version="1.0" encoding="utf-8"?>
<svg version="1.1" xmlns:xlink="http://www.w3.org/1999/xlink" width="308px" height="186px" xmlns="http://www.w3.org/2000/svg">
  <defs>
    <mask fill="white" id="clip716">
      <path d="M 16 187  L 16 6  C 16 3.225  18.225 1  21 1  L 319 1  C 321.775 1  324 3.225  324 6  L 324 187  " fill-rule="evenodd" />
    </mask>
  </defs>
  <g transform="matrix(1 0 0 1 -16 -1 )">
    <path d="M 16 1  L 324 1  L 324 187  L 16 187  L 16 1  " fill-rule="nonzero" fill="#cccccc" stroke="none" mask="url(#clip716)" />
    <path d="M 29 14  L 311 14  L 311 174  L 29 174  L 29 14  " fill-rule="nonzero" fill="#ffffff" stroke="none" mask="url(#clip716)" />
    <path d="M 190.11 56.8  C 182.298 56.8  176.16 50.662  176.16 42.85  C 176.16 35.038  182.298 28.9  190.11 28.9  C 197.922 28.9  204.06 35.038  204.06 42.85  C 204.06 50.662  197.922 56.8  190.11 56.8  " fill-rule="nonzero" fill="#cccccc" stroke="none" mask="url(#clip716)" />
    <path d="M 34 170  L 34 86.95  L 102.25 49.2  L 197.8 115.287012987013  L 252.4 71.85  L 307 115.287012987013  L 307 170  L 34 170  " fill-rule="nonzero" fill="#169bd5" stroke="none" mask="url(#clip716)" />
  </g>
</svg>