<?xml version="1.0" encoding="utf-8"?>
<svg version="1.1" xmlns:xlink="http://www.w3.org/1999/xlink" width="308px" height="187px" xmlns="http://www.w3.org/2000/svg">
  <defs>
    <mask fill="white" id="clip717">
      <path d="M 15 438  L 15 256  C 15 253.225  17.225 251  20 251  L 318 251  C 320.775 251  323 253.225  323 256  L 323 438  " fill-rule="evenodd" />
    </mask>
  </defs>
  <g transform="matrix(1 0 0 1 -15 -251 )">
    <path d="M 15 251  L 323 251  L 323 438  L 15 438  L 15 251  " fill-rule="nonzero" fill="#cccccc" stroke="none" mask="url(#clip717)" />
    <path d="M 28 264  L 310 264  L 310 425  L 28 425  L 28 264  " fill-rule="nonzero" fill="#ffffff" stroke="none" mask="url(#clip717)" />
    <path d="M 189.185 307.1  C 181.331 307.1  175.16 300.929  175.16 293.075  C 175.16 285.221  181.331 279.05  189.185 279.05  C 197.039 279.05  203.21 285.221  203.21 293.075  C 203.21 300.929  197.039 307.1  189.185 307.1  " fill-rule="nonzero" fill="#cccccc" stroke="none" mask="url(#clip717)" />
    <path d="M 33 421  L 33 337.4  L 101.25 299.4  L 196.8 365.628571428571  L 251.4 322.2  L 306 365.628571428571  L 306 421  L 33 421  " fill-rule="nonzero" fill="#169bd5" stroke="none" mask="url(#clip717)" />
  </g>
</svg>