<?xml version="1.0" encoding="utf-8"?>
<svg version="1.1" xmlns:xlink="http://www.w3.org/1999/xlink" width="148px" height="178px" xmlns="http://www.w3.org/2000/svg">
  <defs>
    <mask fill="white" id="clip718">
      <path d="M 21 192  C 18.225 192  16 189.775  16 187  L 16 19  C 16 16.225  18.225 14  21 14  L 159 14  C 161.775 14  164 16.225  164 19  L 164 187  C 164 189.775  161.775 192  159 192  " fill-rule="evenodd" />
    </mask>
  </defs>
  <g transform="matrix(1 0 0 1 -16 -14 )">
    <path d="M 16 14  L 164 14  L 164 192  L 16 192  L 16 14  " fill-rule="nonzero" fill="#cccccc" stroke="none" mask="url(#clip718)" />
    <path d="M 26 24  L 154 24  L 154 182  L 26 182  L 26 24  " fill-rule="nonzero" fill="#ffffff" stroke="none" mask="url(#clip718)" />
    <path d="M 104.06 62.9  C 97.844 62.9  92.96 58.016  92.96 51.8  C 92.96 45.584  97.844 40.7  104.06 40.7  C 110.276 40.7  115.16 45.584  115.16 51.8  C 115.16 58.016  110.276 62.9  104.06 62.9  " fill-rule="nonzero" fill="#cccccc" stroke="none" mask="url(#clip718)" />
    <path d="M 30 179  L 30 95.95  L 60.25 58.2  L 102.6 88.4  L 126.8 80.85  L 151 88.4  L 151 179  L 30 179  " fill-rule="nonzero" fill="#169bd5" stroke="none" mask="url(#clip718)" />
  </g>
</svg>