<?xml version="1.0" encoding="utf-8"?>
<svg version="1.1" xmlns:xlink="http://www.w3.org/1999/xlink" width="328px" height="117px" xmlns="http://www.w3.org/2000/svg">
  <g transform="matrix(1 0 0 1 -46 -90 )">
    <path d="M 47 95  A 4 4 0 0 1 51 91 L 369 91  A 4 4 0 0 1 373 95 L 373 202  A 4 4 0 0 1 369 206 L 51 206  A 4 4 0 0 1 47 202 L 47 95  Z " fill-rule="nonzero" fill="#ffffff" stroke="none" />
    <path d="M 46.5 95  A 4.5 4.5 0 0 1 51 90.5 L 369 90.5  A 4.5 4.5 0 0 1 373.5 95 L 373.5 202  A 4.5 4.5 0 0 1 369 206.5 L 51 206.5  A 4.5 4.5 0 0 1 46.5 202 L 46.5 95  Z " stroke-width="1" stroke-dasharray="9,4,2,4" stroke="#19dd33" fill="none" stroke-dashoffset="0.5" />
  </g>
</svg>