<?xml version="1.0" encoding="utf-8"?>
<svg version="1.1" xmlns:xlink="http://www.w3.org/1999/xlink" width="12px" height="12px" viewBox="151 251.5  12 12" xmlns="http://www.w3.org/2000/svg">
  <path d="M 157 251.5  C 160.36 251.5  163 254.14  163 257.5  C 163 260.86  160.36 263.5  157 263.5  C 153.64 263.5  151 260.86  151 257.5  C 151 254.14  153.64 251.5  157 251.5  Z " fill-rule="nonzero" fill="#ffffff" stroke="none" />
  <path d="M 157 252  C 160.08 252  162.5 254.42  162.5 257.5  C 162.5 260.58  160.08 263  157 263  C 153.92 263  151.5 260.58  151.5 257.5  C 151.5 254.42  153.92 252  157 252  Z " stroke-width="1" stroke="#797979" fill="none" />
  <path d="M 157 260.5  C 155.32 260.5  154 259.18  154 257.5  C 154 255.82  155.32 254.5  157 254.5  C 158.68 254.5  160 255.82  160 257.5  C 160 259.18  158.68 260.5  157 260.5  " fill-rule="nonzero" fill="#797979" stroke="none" />
</svg>