<?xml version="1.0" encoding="utf-8"?>
<svg version="1.1" xmlns:xlink="http://www.w3.org/1999/xlink" width="12px" height="12px" viewBox="227 251.5  12 12" xmlns="http://www.w3.org/2000/svg">
  <path d="M 233 251.5  C 236.36 251.5  239 254.14  239 257.5  C 239 260.86  236.36 263.5  233 263.5  C 229.64 263.5  227 260.86  227 257.5  C 227 254.14  229.64 251.5  233 251.5  Z " fill-rule="nonzero" fill="#ffffff" stroke="none" />
  <path d="M 233 252  C 236.08 252  238.5 254.42  238.5 257.5  C 238.5 260.58  236.08 263  233 263  C 229.92 263  227.5 260.58  227.5 257.5  C 227.5 254.42  229.92 252  233 252  Z " stroke-width="1" stroke="#797979" fill="none" />
  <path d="M 233 260.5  C 231.32 260.5  230 259.18  230 257.5  C 230 255.82  231.32 254.5  233 254.5  C 234.68 254.5  236 255.82  236 257.5  C 236 259.18  234.68 260.5  233 260.5  " fill-rule="nonzero" fill="#797979" stroke="none" />
</svg>