<?xml version="1.0" encoding="utf-8"?>
<svg version="1.1" xmlns:xlink="http://www.w3.org/1999/xlink" width="328px" height="88px" xmlns="http://www.w3.org/2000/svg">
  <g transform="matrix(1 0 0 1 -46 -217 )">
    <path d="M 47 222  A 4 4 0 0 1 51 218 L 369 218  A 4 4 0 0 1 373 222 L 373 300  A 4 4 0 0 1 369 304 L 51 304  A 4 4 0 0 1 47 300 L 47 222  Z " fill-rule="nonzero" fill="#ffffff" stroke="none" />
    <path d="M 46.5 222  A 4.5 4.5 0 0 1 51 217.5 L 369 217.5  A 4.5 4.5 0 0 1 373.5 222 L 373.5 300  A 4.5 4.5 0 0 1 369 304.5 L 51 304.5  A 4.5 4.5 0 0 1 46.5 300 L 46.5 222  Z " stroke-width="1" stroke-dasharray="9,4,2,4" stroke="#797979" fill="none" stroke-dashoffset="0.5" />
  </g>
</svg>