<?xml version="1.0" encoding="utf-8"?>
<svg version="1.1" xmlns:xlink="http://www.w3.org/1999/xlink" width="12px" height="12px" viewBox="187 389  12 12" xmlns="http://www.w3.org/2000/svg">
  <path d="M 193 389  C 196.36 389  199 391.64  199 395  C 199 398.36  196.36 401  193 401  C 189.64 401  187 398.36  187 395  C 187 391.64  189.64 389  193 389  Z " fill-rule="nonzero" fill="#ffffff" stroke="none" />
  <path d="M 193 389.5  C 196.08 389.5  198.5 391.92  198.5 395  C 198.5 398.08  196.08 400.5  193 400.5  C 189.92 400.5  187.5 398.08  187.5 395  C 187.5 391.92  189.92 389.5  193 389.5  Z " stroke-width="1" stroke="#797979" fill="none" />
  <path d="M 193 398  C 191.32 398  190 396.68  190 395  C 190 393.32  191.32 392  193 392  C 194.68 392  196 393.32  196 395  C 196 396.68  194.68 398  193 398  " fill-rule="nonzero" fill="#797979" stroke="none" />
</svg>