<?xml version="1.0" encoding="utf-8"?>
<svg version="1.1" xmlns:xlink="http://www.w3.org/1999/xlink" width="12px" height="12px" viewBox="270 389  12 12" xmlns="http://www.w3.org/2000/svg">
  <path d="M 276 389  C 279.36 389  282 391.64  282 395  C 282 398.36  279.36 401  276 401  C 272.64 401  270 398.36  270 395  C 270 391.64  272.64 389  276 389  Z " fill-rule="nonzero" fill="#ffffff" stroke="none" />
  <path d="M 276 389.5  C 279.08 389.5  281.5 391.92  281.5 395  C 281.5 398.08  279.08 400.5  276 400.5  C 272.92 400.5  270.5 398.08  270.5 395  C 270.5 391.92  272.92 389.5  276 389.5  Z " stroke-width="1" stroke="#797979" fill="none" />
  <path d="M 276 398  C 274.32 398  273 396.68  273 395  C 273 393.32  274.32 392  276 392  C 277.68 392  279 393.32  279 395  C 279 396.68  277.68 398  276 398  " fill-rule="nonzero" fill="#797979" stroke="none" />
</svg>