<?xml version="1.0" encoding="utf-8"?>
<svg version="1.1" xmlns:xlink="http://www.w3.org/1999/xlink" width="12px" height="12px" viewBox="303 251.5  12 12" xmlns="http://www.w3.org/2000/svg">
  <path d="M 309 251.5  C 312.36 251.5  315 254.14  315 257.5  C 315 260.86  312.36 263.5  309 263.5  C 305.64 263.5  303 260.86  303 257.5  C 303 254.14  305.64 251.5  309 251.5  Z " fill-rule="nonzero" fill="#ffffff" stroke="none" />
  <path d="M 309 252  C 312.08 252  314.5 254.42  314.5 257.5  C 314.5 260.58  312.08 263  309 263  C 305.92 263  303.5 260.58  303.5 257.5  C 303.5 254.42  305.92 252  309 252  Z " stroke-width="1" stroke="#797979" fill="none" />
  <path d="M 309 260.5  C 307.32 260.5  306 259.18  306 257.5  C 306 255.82  307.32 254.5  309 254.5  C 310.68 254.5  312 255.82  312 257.5  C 312 259.18  310.68 260.5  309 260.5  " fill-rule="nonzero" fill="#797979" stroke="none" />
</svg>