<?xml version="1.0" encoding="utf-8"?>
<svg version="1.1" xmlns:xlink="http://www.w3.org/1999/xlink" width="328px" height="60px" xmlns="http://www.w3.org/2000/svg">
  <g transform="matrix(1 0 0 1 -46 -315 )">
    <path d="M 47 320  A 4 4 0 0 1 51 316 L 369 316  A 4 4 0 0 1 373 320 L 373 370  A 4 4 0 0 1 369 374 L 51 374  A 4 4 0 0 1 47 370 L 47 320  Z " fill-rule="nonzero" fill="#ffffff" stroke="none" />
    <path d="M 46.5 320  A 4.5 4.5 0 0 1 51 315.5 L 369 315.5  A 4.5 4.5 0 0 1 373.5 320 L 373.5 370  A 4.5 4.5 0 0 1 369 374.5 L 51 374.5  A 4.5 4.5 0 0 1 46.5 370 L 46.5 320  Z " stroke-width="1" stroke-dasharray="9,4,2,4" stroke="#797979" fill="none" stroke-dashoffset="0.5" />
  </g>
</svg>