<?xml version="1.0" encoding="utf-8"?>
<svg version="1.1" xmlns:xlink="http://www.w3.org/1999/xlink" width="12px" height="12px" viewBox="117 414  12 12" xmlns="http://www.w3.org/2000/svg">
  <path d="M 123 414  C 126.36 414  129 416.64  129 420  C 129 423.36  126.36 426  123 426  C 119.64 426  117 423.36  117 420  C 117 416.64  119.64 414  123 414  Z " fill-rule="nonzero" fill="#ffffff" stroke="none" />
  <path d="M 123 414.5  C 126.08 414.5  128.5 416.92  128.5 420  C 128.5 423.08  126.08 425.5  123 425.5  C 119.92 425.5  117.5 423.08  117.5 420  C 117.5 416.92  119.92 414.5  123 414.5  Z " stroke-width="1" stroke="#797979" fill="none" />
  <path d="M 123 423  C 121.32 423  120 421.68  120 420  C 120 418.32  121.32 417  123 417  C 124.68 417  126 418.32  126 420  C 126 421.68  124.68 423  123 423  " fill-rule="nonzero" fill="#797979" stroke="none" />
</svg>