<?xml version="1.0" encoding="utf-8"?>
<svg version="1.1" xmlns:xlink="http://www.w3.org/1999/xlink" width="12px" height="12px" viewBox="187 414  12 12" xmlns="http://www.w3.org/2000/svg">
  <path d="M 193 414  C 196.36 414  199 416.64  199 420  C 199 423.36  196.36 426  193 426  C 189.64 426  187 423.36  187 420  C 187 416.64  189.64 414  193 414  Z " fill-rule="nonzero" fill="#ffffff" stroke="none" />
  <path d="M 193 414.5  C 196.08 414.5  198.5 416.92  198.5 420  C 198.5 423.08  196.08 425.5  193 425.5  C 189.92 425.5  187.5 423.08  187.5 420  C 187.5 416.92  189.92 414.5  193 414.5  Z " stroke-width="1" stroke="#797979" fill="none" />
  <path d="M 193 423  C 191.32 423  190 421.68  190 420  C 190 418.32  191.32 417  193 417  C 194.68 417  196 418.32  196 420  C 196 421.68  194.68 423  193 423  " fill-rule="nonzero" fill="#797979" stroke="none" />
</svg>