<?xml version="1.0" encoding="utf-8"?>
<svg version="1.1" xmlns:xlink="http://www.w3.org/1999/xlink" width="12px" height="12px" viewBox="117 389  12 12" xmlns="http://www.w3.org/2000/svg">
  <path d="M 123 389  C 126.36 389  129 391.64  129 395  C 129 398.36  126.36 401  123 401  C 119.64 401  117 398.36  117 395  C 117 391.64  119.64 389  123 389  Z " fill-rule="nonzero" fill="#ffffff" stroke="none" />
  <path d="M 123 389.5  C 126.08 389.5  128.5 391.92  128.5 395  C 128.5 398.08  126.08 400.5  123 400.5  C 119.92 400.5  117.5 398.08  117.5 395  C 117.5 391.92  119.92 389.5  123 389.5  Z " stroke-width="1" stroke="#797979" fill="none" />
  <path d="M 123 398  C 121.32 398  120 396.68  120 395  C 120 393.32  121.32 392  123 392  C 124.68 392  126 393.32  126 395  C 126 396.68  124.68 398  123 398  " fill-rule="nonzero" fill="#797979" stroke="none" />
</svg>