<?xml version="1.0" encoding="utf-8"?>
<svg version="1.1" xmlns:xlink="http://www.w3.org/1999/xlink" width="12px" height="12px" xmlns="http://www.w3.org/2000/svg">
  <g transform="matrix(1 0 0 1 -161 -276 )">
    <path d="M 166.016187334264 280.64589803375  L 167 277.61803398875  L 167.983812665736 280.64589803375  L 171.167497329183 280.64589803375  L 168.591842331724 282.517220926874  L 169.57565499746 285.545084971875  L 167 283.673762078751  L 164.42434500254 285.545084971875  L 165.408157668276 282.517220926874  L 162.832502670817 280.64589803375  L 166.016187334264 280.64589803375  Z " fill-rule="nonzero" fill="#ffffff" stroke="none" />
    <path d="M 165.652916070261 280.14589803375  L 167 276  L 168.347083929739 280.14589803375  L 172.706339097771 280.14589803375  L 169.179627584016 282.708203932499  L 170.526711513755 286.85410196625  L 167 284.291796067501  L 163.473288486245 286.85410196625  L 164.820372415984 282.708203932499  L 161.293660902229 280.14589803375  L 165.652916070261 280.14589803375  Z M 167 279.2360679775  L 166.379458598267 281.14589803375  L 164.371344439404 281.14589803375  L 165.995942920569 282.326237921249  L 165.375401518835 284.2360679775  L 167 283.055728090001  L 168.624598481165 284.2360679775  L 168.004057079431 282.326237921249  L 169.628655560596 281.14589803375  L 167.620541401733 281.14589803375  L 167 279.2360679775  Z " fill-rule="nonzero" fill="#666666" stroke="none" />
  </g>
</svg>