<?xml version="1.0" encoding="utf-8"?>
<svg version="1.1" xmlns:xlink="http://www.w3.org/1999/xlink" width="40px" height="40px" xmlns="http://www.w3.org/2000/svg">
  <g transform="matrix(1 0 0 1 -290 -470 )">
    <path d="M 310 470  C 321.2 470  330 478.8  330 490  C 330 501.2  321.2 510  310 510  C 298.8 510  290 501.2  290 490  C 290 478.8  298.8 470  310 470  Z " fill-rule="nonzero" fill="#ffffff" stroke="none" />
    <path d="M 310 470.5  C 320.92 470.5  329.5 479.08  329.5 490  C 329.5 500.92  320.92 509.5  310 509.5  C 299.08 509.5  290.5 500.92  290.5 490  C 290.5 479.08  299.08 470.5  310 470.5  Z " stroke-width="1" stroke="#797979" fill="none" />
  </g>
</svg>