<?xml version="1.0" encoding="utf-8"?>
<svg version="1.1" xmlns:xlink="http://www.w3.org/1999/xlink" width="140px" height="85px" xmlns="http://www.w3.org/2000/svg">
  <defs>
    <mask fill="white" id="clip55">
      <path d="M 20 135  C 17.225 135  15 132.775  15 130  L 15 55  C 15 52.225  17.225 50  20 50  L 150 50  C 152.775 50  155 52.225  155 55  L 155 130  C 155 132.775  152.775 135  150 135  " fill-rule="evenodd" />
    </mask>
  </defs>
  <g transform="matrix(1 0 0 1 -15 -50 )">
    <path d="M 15 50  L 155 50  L 155 135  L 15 135  L 15 50  " fill-rule="nonzero" fill="#cccccc" stroke="none" mask="url(#clip55)" />
    <path d="M 21 56  L 149 56  L 149 129  L 21 129  L 21 56  " fill-rule="nonzero" fill="#ffffff" stroke="none" mask="url(#clip55)" />
    <path d="M 94.175 75.5  C 90.605 75.5  87.8 72.695  87.8 69.125  C 87.8 65.555  90.605 62.75  94.175 62.75  C 97.745 62.75  100.55 65.555  100.55 69.125  C 100.55 72.695  97.745 75.5  94.175 75.5  " fill-rule="nonzero" fill="#cccccc" stroke="none" mask="url(#clip55)" />
    <path d="M 23 127  L 23 89.05  L 54 71.8  L 97.4 101.864285714286  L 122.2 82.15  L 147 101.864285714286  L 147 127  L 23 127  " fill-rule="nonzero" fill="#169bd5" stroke="none" mask="url(#clip55)" />
  </g>
</svg>