<?xml version="1.0" encoding="utf-8"?>
<svg version="1.1" xmlns:xlink="http://www.w3.org/1999/xlink" width="136px" height="84px" xmlns="http://www.w3.org/2000/svg">
  <defs>
    <mask fill="white" id="clip801">
      <path d="M 24 97  L 24 18  C 24 15.225  26.225 13  29 13  L 155 13  C 157.775 13  160 15.225  160 18  L 160 97  " fill-rule="evenodd" />
    </mask>
  </defs>
  <g transform="matrix(1 0 0 1 -24 -13 )">
    <path d="M 24 13  L 160 13  L 160 97  L 24 97  L 24 13  " fill-rule="nonzero" fill="#cccccc" stroke="none" mask="url(#clip801)" />
    <path d="M 30 19  L 154 19  L 154 91  L 30 91  L 30 19  " fill-rule="nonzero" fill="#ffffff" stroke="none" mask="url(#clip801)" />
    <path d="M 101.02 38.2  C 97.492 38.2  94.72 35.428  94.72 31.9  C 94.72 28.372  97.492 25.6  101.02 25.6  C 104.548 25.6  107.32 28.372  107.32 31.9  C 107.32 35.428  104.548 38.2  101.02 38.2  " fill-rule="nonzero" fill="#cccccc" stroke="none" mask="url(#clip801)" />
    <path d="M 32 89  L 32 51.6  L 62 34.6  L 104 63.8  L 128 44.8  L 152 63.8  L 152 89  L 32 89  " fill-rule="nonzero" fill="#169bd5" stroke="none" mask="url(#clip801)" />
  </g>
</svg>