<?xml version="1.0" encoding="utf-8"?>
<svg version="1.1" xmlns:xlink="http://www.w3.org/1999/xlink" width="148px" height="84px" xmlns="http://www.w3.org/2000/svg">
  <defs>
    <mask fill="white" id="clip442">
      <path d="M 16 90  L 16 11  C 16 8.225  18.225 6  21 6  L 159 6  C 161.775 6  164 8.225  164 11  L 164 90  " fill-rule="evenodd" />
    </mask>
  </defs>
  <g transform="matrix(1 0 0 1 -16 -6 )">
    <path d="M 16 6  L 164 6  L 164 90  L 16 90  L 16 6  " fill-rule="nonzero" fill="#cccccc" stroke="none" mask="url(#clip442)" />
    <path d="M 22 12  L 158 12  L 158 84  L 22 84  L 22 12  " fill-rule="nonzero" fill="#ffffff" stroke="none" mask="url(#clip442)" />
    <path d="M 99.26 31.2  C 95.732 31.2  92.96 28.428  92.96 24.9  C 92.96 21.372  95.732 18.6  99.26 18.6  C 102.788 18.6  105.56 21.372  105.56 24.9  C 105.56 28.428  102.788 31.2  99.26 31.2  " fill-rule="nonzero" fill="#cccccc" stroke="none" mask="url(#clip442)" />
    <path d="M 24 82  L 24 44.6  L 57 27.6  L 103.2 58.8432432432433  L 129.6 37.8  L 156 58.8432432432433  L 156 82  L 24 82  " fill-rule="nonzero" fill="#169bd5" stroke="none" mask="url(#clip442)" />
  </g>
</svg>