<?xml version="1.0" encoding="utf-8"?>
<svg version="1.1" xmlns:xlink="http://www.w3.org/1999/xlink" width="120px" height="120px" xmlns="http://www.w3.org/2000/svg">
  <g transform="matrix(1 0 0 1 -20 -15 )">
    <path d="M 20 15  L 140 15  L 140 135  L 20 135  L 20 15  " fill-rule="nonzero" fill="#cccccc" stroke="none" />
    <path d="M 28 23  L 132 23  L 132 127  L 28 127  L 28 23  " fill-rule="nonzero" fill="#ffffff" stroke="none" />
    <path d="M 91.4 51  C 86.36 51  82.4 47.04  82.4 42  C 82.4 36.96  86.36 33  91.4 33  C 96.44 33  100.4 36.96  100.4 42  C 100.4 47.04  96.44 51  91.4 51  " fill-rule="nonzero" fill="#cccccc" stroke="none" />
    <path d="M 31 124  L 31 70.1  L 55.5 45.6  L 89.8 65.2  L 109.4 60.3  L 129 65.2  L 129 124  L 31 124  " fill-rule="nonzero" fill="#169bd5" stroke="none" />
  </g>
</svg>