<?xml version="1.0" encoding="utf-8"?>
<svg version="1.1" xmlns:xlink="http://www.w3.org/1999/xlink" width="12px" height="12px" xmlns="http://www.w3.org/2000/svg">
  <g transform="matrix(1 0 0 1 -110 -41 )">
    <path d="M 115.016187334264 45.6458980337503  L 116 42.6180339887499  L 116.983812665736 45.6458980337503  L 120.167497329183 45.6458980337503  L 117.591842331724 47.5172209268743  L 118.57565499746 50.5450849718747  L 116 48.6737620787507  L 113.42434500254 50.5450849718747  L 114.408157668276 47.5172209268743  L 111.832502670817 45.6458980337503  L 115.016187334264 45.6458980337503  Z " fill-rule="nonzero" fill="#199ed8" stroke="none" />
    <path d="M 114.652916070261 45.1458980337503  L 116 41  L 117.347083929739 45.1458980337503  L 121.706339097771 45.1458980337503  L 118.179627584016 47.7082039324994  L 119.526711513755 51.8541019662497  L 116 49.2917960675006  L 112.473288486245 51.8541019662497  L 113.820372415984 47.7082039324994  L 110.293660902229 45.1458980337503  L 114.652916070261 45.1458980337503  Z M 116 44.2360679774998  L 115.379458598267 46.1458980337503  L 113.371344439404 46.1458980337503  L 114.995942920569 47.3262379212493  L 114.375401518835 49.2360679774998  L 116 48.0557280900008  L 117.624598481165 49.2360679774998  L 117.004057079431 47.3262379212493  L 118.628655560596 46.1458980337503  L 116.620541401733 46.1458980337503  L 116 44.2360679774998  Z " fill-rule="nonzero" fill="#3399ff" stroke="none" />
  </g>
</svg>