<?xml version="1.0" encoding="utf-8"?>
<svg version="1.1" xmlns:xlink="http://www.w3.org/1999/xlink" width="340px" height="195px" xmlns="http://www.w3.org/2000/svg">
  <g transform="matrix(1 0 0 1 -40 -155 )">
    <path d="M 40 155  L 380 155  L 380 350  L 40 350  L 40 155  " fill-rule="nonzero" fill="#cccccc" stroke="none" />
    <path d="M 54 169  L 366 169  L 366 336  L 54 336  L 54 169  " fill-rule="nonzero" fill="#ffffff" stroke="none" />
    <path d="M 231.425 213.5  C 223.235 213.5  216.8 207.065  216.8 198.875  C 216.8 190.685  223.235 184.25  231.425 184.25  C 239.615 184.25  246.05 190.685  246.05 198.875  C 246.05 207.065  239.615 213.5  231.425 213.5  " fill-rule="nonzero" fill="#cccccc" stroke="none" />
    <path d="M 59 331  L 59 244.65  L 134.5 205.4  L 240.2 276.973529411765  L 300.6 228.95  L 361 276.973529411765  L 361 331  L 59 331  " fill-rule="nonzero" fill="#169bd5" stroke="none" />
  </g>
</svg>