<?xml version="1.0" encoding="utf-8"?>
<svg version="1.1" xmlns:xlink="http://www.w3.org/1999/xlink" width="12px" height="12px" viewBox="359 172  12 12" xmlns="http://www.w3.org/2000/svg">
  <path d="M 365 172  C 368.36 172  371 174.64  371 178  C 371 181.36  368.36 184  365 184  C 361.64 184  359 181.36  359 178  C 359 174.64  361.64 172  365 172  Z " fill-rule="nonzero" fill="#ffffff" stroke="none" />
  <path d="M 365 172.5  C 368.08 172.5  370.5 174.92  370.5 178  C 370.5 181.08  368.08 183.5  365 183.5  C 361.92 183.5  359.5 181.08  359.5 178  C 359.5 174.92  361.92 172.5  365 172.5  Z " stroke-width="1" stroke="#797979" fill="none" />
  <path d="M 365 181  C 363.32 181  362 179.68  362 178  C 362 176.32  363.32 175  365 175  C 366.68 175  368 176.32  368 178  C 368 179.68  366.68 181  365 181  " fill-rule="nonzero" fill="#797979" stroke="none" />
</svg>