<?xml version="1.0" encoding="utf-8"?>
<svg version="1.1" xmlns:xlink="http://www.w3.org/1999/xlink" width="12px" height="12px" viewBox="359 214  12 12" xmlns="http://www.w3.org/2000/svg">
  <path d="M 365 214  C 368.36 214  371 216.64  371 220  C 371 223.36  368.36 226  365 226  C 361.64 226  359 223.36  359 220  C 359 216.64  361.64 214  365 214  Z " fill-rule="nonzero" fill="#ffffff" stroke="none" />
  <path d="M 365 214.5  C 368.08 214.5  370.5 216.92  370.5 220  C 370.5 223.08  368.08 225.5  365 225.5  C 361.92 225.5  359.5 223.08  359.5 220  C 359.5 216.92  361.92 214.5  365 214.5  Z " stroke-width="1" stroke="#797979" fill="none" />
  <path d="M 365 223  C 363.32 223  362 221.68  362 220  C 362 218.32  363.32 217  365 217  C 366.68 217  368 218.32  368 220  C 368 221.68  366.68 223  365 223  " fill-rule="nonzero" fill="#797979" stroke="none" />
</svg>