<?xml version="1.0" encoding="utf-8"?>
<svg version="1.1" xmlns:xlink="http://www.w3.org/1999/xlink" width="358px" height="176px" xmlns="http://www.w3.org/2000/svg">
  <g transform="matrix(1 0 0 1 -31 -31 )">
    <path d="M 31 31  L 389 31  L 389 207  L 31 207  L 31 31  " fill-rule="nonzero" fill="#cccccc" stroke="none" />
    <path d="M 43 43  L 377 43  L 377 195  L 43 195  L 43 43  " fill-rule="nonzero" fill="#ffffff" stroke="none" />
    <path d="M 230.36 83.8  C 222.968 83.8  217.16 77.992  217.16 70.6  C 217.16 63.208  222.968 57.4  230.36 57.4  C 237.752 57.4  243.56 63.208  243.56 70.6  C 243.56 77.992  237.752 83.8  230.36 83.8  " fill-rule="nonzero" fill="#cccccc" stroke="none" />
    <path d="M 48 191  L 48 112.35  L 129.25 76.6  L 243 148.818994413408  L 308 98.05  L 373 148.818994413408  L 373 191  L 48 191  " fill-rule="nonzero" fill="#169bd5" stroke="none" />
  </g>
</svg>