<?xml version="1.0" encoding="utf-8"?>
<svg version="1.1" xmlns:xlink="http://www.w3.org/1999/xlink" width="153px" height="99px" xmlns="http://www.w3.org/2000/svg">
  <defs>
    <mask fill="white" id="clip1553">
      <path d="M 51 529  L 51 435  C 51 432.225  53.225 430  56 430  L 199 430  C 201.775 430  204 432.225  204 435  L 204 529  " fill-rule="evenodd" />
    </mask>
  </defs>
  <g transform="matrix(1 0 0 1 -51 -430 )">
    <path d="M 51 430  L 204 430  L 204 529  L 51 529  L 51 430  " fill-rule="nonzero" fill="#cccccc" stroke="none" mask="url(#clip1553)" />
    <path d="M 58 437  L 197 437  L 197 522  L 58 522  L 58 437  " fill-rule="nonzero" fill="#ffffff" stroke="none" mask="url(#clip1553)" />
    <path d="M 137.985 459.7  C 133.827 459.7  130.56 456.433  130.56 452.275  C 130.56 448.117  133.827 444.85  137.985 444.85  C 142.143 444.85  145.41 448.117  145.41 452.275  C 145.41 456.433  142.143 459.7  137.985 459.7  " fill-rule="nonzero" fill="#cccccc" stroke="none" mask="url(#clip1553)" />
    <path d="M 61 520  L 61 476  L 94.5 456  L 141.4 488.941176470588  L 168.2 468  L 195 488.941176470588  L 195 520  L 61 520  " fill-rule="nonzero" fill="#169bd5" stroke="none" mask="url(#clip1553)" />
  </g>
</svg>