<?xml version="1.0" encoding="utf-8"?>
<svg version="1.1" xmlns:xlink="http://www.w3.org/1999/xlink" width="9px" height="9px" xmlns="http://www.w3.org/2000/svg">
  <g transform="matrix(1 0 0 1 -25 -6 )">
    <path d="M 29.5 6  C 32.02 6  34 7.98  34 10.5  C 34 13.02  32.02 15  29.5 15  C 26.98 15  25 13.02  25 10.5  C 25 7.98  26.98 6  29.5 6  Z " fill-rule="nonzero" fill="#ffffff" stroke="none" />
    <path d="M 29.5 6.5  C 31.74 6.5  33.5 8.26  33.5 10.5  C 33.5 12.74  31.74 14.5  29.5 14.5  C 27.26 14.5  25.5 12.74  25.5 10.5  C 25.5 8.26  27.26 6.5  29.5 6.5  Z " stroke-width="1" stroke="#3399ff" fill="none" />
  </g>
</svg>