<?xml version="1.0" encoding="utf-8"?>
<svg version="1.1" xmlns:xlink="http://www.w3.org/1999/xlink" width="91px" height="90px" xmlns="http://www.w3.org/2000/svg">
  <g transform="matrix(1 0 0 1 -40 -48 )">
    <path d="M 40 48  L 131 48  L 131 138  L 40 138  L 40 48  " fill-rule="nonzero" fill="#cccccc" stroke="none" />
    <path d="M 46 54  L 125 54  L 125 132  L 46 132  L 46 54  " fill-rule="nonzero" fill="#ffffff" stroke="none" />
    <path d="M 94.07 75  C 90.29 75  87.32 72.03  87.32 68.25  C 87.32 64.47  90.29 61.5  94.07 61.5  C 97.85 61.5  100.82 64.47  100.82 68.25  C 100.82 72.03  97.85 75  94.07 75  " fill-rule="nonzero" fill="#cccccc" stroke="none" />
    <path d="M 49 130  L 49 89.85  L 67.5 71.6  L 93.4 86.6813186813187  L 108.2 82.55  L 123 86.6813186813187  L 123 130  L 49 130  " fill-rule="nonzero" fill="#169bd5" stroke="none" />
  </g>
</svg>