<?xml version="1.0" encoding="utf-8"?>
<svg version="1.1" xmlns:xlink="http://www.w3.org/1999/xlink" width="12px" height="12px" viewBox="66 187.5  12 12" xmlns="http://www.w3.org/2000/svg">
  <path d="M 72 187.5  C 75.36 187.5  78 190.14  78 193.5  C 78 196.86  75.36 199.5  72 199.5  C 68.64 199.5  66 196.86  66 193.5  C 66 190.14  68.64 187.5  72 187.5  Z " fill-rule="nonzero" fill="#ffffff" stroke="none" />
  <path d="M 72 188  C 75.08 188  77.5 190.42  77.5 193.5  C 77.5 196.58  75.08 199  72 199  C 68.92 199  66.5 196.58  66.5 193.5  C 66.5 190.42  68.92 188  72 188  Z " stroke-width="1" stroke="#797979" fill="none" />
  <path d="M 72 196.5  C 70.32 196.5  69 195.18  69 193.5  C 69 191.82  70.32 190.5  72 190.5  C 73.68 190.5  75 191.82  75 193.5  C 75 195.18  73.68 196.5  72 196.5  " fill-rule="nonzero" fill="#797979" stroke="none" />
</svg>