<?xml version="1.0" encoding="utf-8"?>
<svg version="1.1" xmlns:xlink="http://www.w3.org/1999/xlink" width="12px" height="12px" xmlns="http://www.w3.org/2000/svg">
  <g transform="matrix(1 0 0 1 -159 -650 )">
    <path d="M 164.016187334264 654.64589803375  L 165 651.61803398875  L 165.983812665736 654.64589803375  L 169.167497329183 654.64589803375  L 166.591842331724 656.517220926874  L 167.57565499746 659.545084971875  L 165 657.673762078751  L 162.42434500254 659.545084971875  L 163.408157668276 656.517220926874  L 160.832502670817 654.64589803375  L 164.016187334264 654.64589803375  Z " fill-rule="nonzero" fill="#ffffff" stroke="none" />
    <path d="M 163.652916070261 654.14589803375  L 165 650  L 166.347083929739 654.14589803375  L 170.706339097771 654.14589803375  L 167.179627584016 656.708203932499  L 168.526711513755 660.85410196625  L 165 658.291796067501  L 161.473288486245 660.85410196625  L 162.820372415984 656.708203932499  L 159.293660902229 654.14589803375  L 163.652916070261 654.14589803375  Z M 165 653.2360679775  L 164.379458598267 655.14589803375  L 162.371344439404 655.14589803375  L 163.995942920569 656.326237921249  L 163.375401518835 658.2360679775  L 165 657.055728090001  L 166.624598481165 658.2360679775  L 166.004057079431 656.326237921249  L 167.628655560596 655.14589803375  L 165.620541401733 655.14589803375  L 165 653.2360679775  Z " fill-rule="nonzero" fill="#3399ff" stroke="none" />
  </g>
</svg>