<?xml version="1.0" encoding="utf-8"?>
<svg version="1.1" xmlns:xlink="http://www.w3.org/1999/xlink" width="158px" height="159px" xmlns="http://www.w3.org/2000/svg">
  <g transform="matrix(1 0 0 1 -46 -91 )">
    <path d="M 46 91  L 204 91  L 204 250  L 46 250  L 46 91  " fill-rule="nonzero" fill="#cccccc" stroke="none" />
    <path d="M 57 102  L 193 102  L 193 239  L 57 239  L 57 102  " fill-rule="nonzero" fill="#ffffff" stroke="none" />
    <path d="M 140.01 138.55  C 133.374 138.55  128.16 133.336  128.16 126.7  C 128.16 120.064  133.374 114.85  140.01 114.85  C 146.646 114.85  151.86 120.064  151.86 126.7  C 151.86 133.336  146.646 138.55  140.01 138.55  " fill-rule="nonzero" fill="#cccccc" stroke="none" />
    <path d="M 61 235  L 61 164.05  L 93 131.8  L 137.8 157.6  L 163.4 151.15  L 189 157.6  L 189 235  L 61 235  " fill-rule="nonzero" fill="#169bd5" stroke="none" />
  </g>
</svg>