<?xml version="1.0" encoding="utf-8"?>
<svg version="1.1" xmlns:xlink="http://www.w3.org/1999/xlink" width="158px" height="159px" xmlns="http://www.w3.org/2000/svg">
  <defs>
    <mask fill="white" id="clip437">
      <path d="M 1 160  L 1 6  C 1 3.225  3.225 1  6 1  L 154 1  C 156.775 1  159 3.225  159 6  L 159 160  " fill-rule="evenodd" />
    </mask>
  </defs>
  <g transform="matrix(1 0 0 1 -1 -1 )">
    <path d="M 1 1  L 159 1  L 159 160  L 1 160  L 1 1  " fill-rule="nonzero" fill="#cccccc" stroke="none" mask="url(#clip437)" />
    <path d="M 12 12  L 148 12  L 148 149  L 12 149  L 12 12  " fill-rule="nonzero" fill="#ffffff" stroke="none" mask="url(#clip437)" />
    <path d="M 95.01 48.55  C 88.374 48.55  83.16 43.336  83.16 36.7  C 83.16 30.064  88.374 24.85  95.01 24.85  C 101.646 24.85  106.86 30.064  106.86 36.7  C 106.86 43.336  101.646 48.55  95.01 48.55  " fill-rule="nonzero" fill="#cccccc" stroke="none" mask="url(#clip437)" />
    <path d="M 16 145  L 16 74.05  L 48 41.8  L 92.8 67.6  L 118.4 61.15  L 144 67.6  L 144 145  L 16 145  " fill-rule="nonzero" fill="#169bd5" stroke="none" mask="url(#clip437)" />
  </g>
</svg>