<?xml version="1.0" encoding="utf-8"?>
<svg version="1.1" xmlns:xlink="http://www.w3.org/1999/xlink" width="40px" height="40px" xmlns="http://www.w3.org/2000/svg">
  <g transform="matrix(1 0 0 1 -40 -210 )">
    <path d="M 60 210  C 71.2 210  80 218.8  80 230  C 80 241.2  71.2 250  60 250  C 48.8 250  40 241.2  40 230  C 40 218.8  48.8 210  60 210  Z " fill-rule="nonzero" fill="#f2f2f2" stroke="none" />
    <path d="M 60 210.5  C 70.92 210.5  79.5 219.08  79.5 230  C 79.5 240.92  70.92 249.5  60 249.5  C 49.08 249.5  40.5 240.92  40.5 230  C 40.5 219.08  49.08 210.5  60 210.5  Z " stroke-width="1" stroke="#797979" fill="none" />
  </g>
</svg>