<?xml version="1.0" encoding="utf-8"?>
<svg version="1.1" xmlns:xlink="http://www.w3.org/1999/xlink" width="14px" height="15px" xmlns="http://www.w3.org/2000/svg">
  <g transform="matrix(1 0 0 1 -47 -355 )">
    <path d="M 2.16015625 12.5210336538462  C 2.27560763888889 12.4068509615385  2.33333333333333 12.2716346153846  2.33333333333333 12.1153846153846  C 2.33333333333333 11.9591346153846  2.27560763888889 11.8239182692308  2.16015625 11.7097355769231  C 2.04470486111111 11.5955528846154  1.90798611111111 11.5384615384615  1.75 11.5384615384615  C 1.59201388888889 11.5384615384615  1.45529513888889 11.5955528846154  1.33984375 11.7097355769231  C 1.22439236111111 11.8239182692308  1.16666666666667 11.9591346153846  1.16666666666667 12.1153846153846  C 1.16666666666667 12.2716346153846  1.22439236111111 12.4068509615385  1.33984375 12.5210336538462  C 1.45529513888889 12.6352163461538  1.59201388888889 12.6923076923077  1.75 12.6923076923077  C 1.90798611111111 12.6923076923077  2.04470486111111 12.6352163461538  2.16015625 12.5210336538462  Z M 12.6373697916667 7.65324519230769  C 12.7680121527778 7.37680288461538  12.8333333333333 7.13341346153846  12.8333333333333 6.92307692307692  C 12.8333333333333 6.61658653846154  12.71484375 6.34765625  12.4778645833333 6.11628605769231  C 12.2408854166667 5.88491586538462  11.9704861111111 5.76923076923077  11.6666666666667 5.76923076923077  L 8.45833333333333 5.76923076923077  C 8.45833333333333 5.42067307692308  8.60416666666667 4.94140625  8.89583333333333 4.33143028846154  C 9.1875 3.72145432692308  9.33333333333333 3.23918269230769  9.33333333333333 2.88461538461538  C 9.33333333333333 2.29567307692308  9.23611111111111 1.85997596153846  9.04166666666667 1.57752403846154  C 8.84722222222222 1.29507211538461  8.45833333333333 1.15384615384615  7.875 1.15384615384615  C 7.71701388888889 1.31009615384615  7.6015625 1.56550480769231  7.52864583333333 1.92007211538462  C 7.45572916666667 2.27463942307692  7.36306423611111 2.65174278846154  7.25065104166667 3.05138221153846  C 7.13823784722222 3.45102163461538  6.95746527777778 3.78004807692308  6.70833333333333 4.03846153846154  C 6.57465277777778 4.17668269230769  6.34071180555556 4.45012019230769  6.00651041666667 4.85877403846154  C 5.98220486111111 4.88882211538462  5.91232638888889 4.97896634615384  5.796875 5.12920673076923  C 5.68142361111111 5.27944711538462  5.58572048611111 5.40264423076923  5.509765625 5.49879807692308  C 5.43381076388889 5.59495192307692  5.32899305555556 5.72265625  5.1953125 5.88191105769231  C 5.06163194444444 6.04116586538462  4.94010416666667 6.17337740384615  4.83072916666667 6.27854567307692  C 4.72135416666667 6.38371394230769  4.60438368055556 6.49038461538461  4.47981770833333 6.59855769230769  C 4.35525173611111 6.70673076923077  4.23372395833333 6.78786057692308  4.115234375 6.84194711538462  C 3.99674479166667 6.89603365384615  3.88888888888889 6.92307692307692  3.79166666666667 6.92307692307692  L 3.5 6.92307692307692  L 3.5 12.6923076923077  L 3.79166666666667 12.6923076923077  C 3.87065972222222 12.6923076923077  3.96636284722222 12.7013221153846  4.07877604166667 12.7193509615385  C 4.19118923611111 12.7373798076923  4.29144965277778 12.7569110576923  4.37955729166667 12.7779447115385  C 4.46766493055556 12.7989783653846  4.58311631944444 12.83203125  4.72591145833333 12.8771033653846  C 4.86870659722222 12.9221754807692  4.97504340277778 12.9567307692308  5.044921875 12.9807692307692  C 5.11480034722222 13.0048076923077  5.22265625 13.0423677884615  5.36848958333333 13.0934495192308  C 5.51432291666667 13.14453125  5.60243055555556 13.1760817307692  5.6328125 13.1881009615385  C 6.91493055555556 13.6268028846154  7.95399305555556 13.8461538461538  8.75 13.8461538461538  L 9.85286458333333 13.8461538461538  C 11.01953125 13.8461538461538  11.6028645833333 13.3443509615385  11.6028645833333 12.3407451923077  C 11.6028645833333 12.1844951923077  11.5876736111111 12.0162259615385  11.5572916666667 11.8359375  C 11.7395833333333 11.7397836538462  11.8838975694444 11.58203125  11.990234375 11.3626802884615  C 12.0965711805556 11.1433293269231  12.1497395833333 10.9224759615385  12.1497395833333 10.7001201923077  C 12.1497395833333 10.4777644230769  12.0950520833333 10.2704326923077  11.9856770833333 10.078125  C 12.3077256944444 9.77764423076923  12.46875 9.42007211538462  12.46875 9.00540865384615  C 12.46875 8.85516826923077  12.4383680555556 8.68840144230769  12.3776041666667 8.50510817307692  C 12.3168402777778 8.32181490384615  12.2408854166667 8.17908653846154  12.1497395833333 8.07692307692308  C 12.3441840277778 8.07091346153846  12.5067274305556 7.9296875  12.6373697916667 7.65324519230769  Z M 13.3072916666667 5.30048076923077  C 13.7690972222222 5.75721153846154  14 6.29507211538462  14 6.9140625  C 14 7.44891826923077  13.8511284722222 7.93870192307692  13.5533854166667 8.38341346153846  C 13.6080729166667 8.58173076923077  13.6354166666667 8.7890625  13.6354166666667 9.00540865384615  C 13.6354166666667 9.46814903846154  13.5199652777778 9.90084134615384  13.2890625 10.3034855769231  C 13.3072916666667 10.4296875  13.31640625 10.5588942307692  13.31640625 10.6911057692308  C 13.31640625 11.2980769230769  13.1341145833333 11.8329326923077  12.76953125 12.2956730769231  C 12.7756076388889 13.1310096153846  12.5173611111111 13.7905649038462  11.9947916666667 14.2743389423077  C 11.4722222222222 14.7581129807692  10.7825520833333 15  9.92578125 15  L 9.59765625 15  L 8.75 15  C 8.16666666666667 15  7.59092881944445 14.9323918269231  7.02278645833333 14.7971754807692  C 6.45464409722222 14.6619591346154  5.796875 14.4651442307692  5.04947916666667 14.2067307692308  C 4.34461805555556 13.9663461538462  3.92534722222222 13.8461538461538  3.79166666666667 13.8461538461538  L 1.16666666666667 13.8461538461538  C 0.844618055555556 13.8461538461538  0.569661458333333 13.7334735576923  0.341796875 13.5081129807692  C 0.113932291666667 13.2827524038462  0 13.0108173076923  0 12.6923076923077  L 0 6.92307692307692  C 0 6.60456730769231  0.113932291666667 6.33263221153846  0.341796875 6.10727163461538  C 0.569661458333333 5.88191105769231  0.844618055555556 5.76923076923077  1.16666666666667 5.76923076923077  L 3.6640625 5.76923076923077  C 3.8828125 5.625  4.29904513888889 5.15925480769231  4.91276041666667 4.37199519230769  C 5.26519097222222 3.92127403846154  5.59027777777778 3.53665865384615  5.88802083333333 3.21814903846154  C 6.03385416666667 3.06790865384615  6.14171006944444 2.81099759615384  6.21158854166667 2.44741586538462  C 6.28146701388889 2.08383413461538  6.37413194444444 1.70372596153846  6.48958333333333 1.30709134615385  C 6.60503472222222 0.910456730769231  6.79340277777778 0.5859375  7.0546875 0.333533653846153  C 7.29166666666667 0.111177884615385  7.56510416666667 0  7.875 0  C 8.38541666666667 0  8.84418402777778 0.0976562500000011  9.25130208333333 0.29296875  C 9.65842013888889 0.488281249999999  9.96831597222222 0.793269230769231  10.1809895833333 1.20793269230769  C 10.3936631944444 1.62259615384615  10.5 2.18149038461538  10.5 2.88461538461538  C 10.5 3.44350961538462  10.3541666666667 4.02043269230769  10.0625 4.61538461538462  L 11.6666666666667 4.61538461538462  C 12.2986111111111 4.61538461538462  12.8454861111111 4.84375  13.3072916666667 5.30048076923077  Z " fill-rule="nonzero" fill="#333333" stroke="none" transform="matrix(1 0 0 1 47 355 )" />
  </g>
</svg>