<?xml version="1.0" encoding="utf-8"?>
<svg version="1.1" xmlns:xlink="http://www.w3.org/1999/xlink" width="358px" height="230px" xmlns="http://www.w3.org/2000/svg">
  <g transform="matrix(1 0 0 1 -31 -31 )">
    <path d="M 31 31  L 389 31  L 389 261  L 31 261  L 31 31  " fill-rule="nonzero" fill="#cccccc" stroke="none" />
    <path d="M 47 47  L 373 47  L 373 245  L 47 245  L 47 47  " fill-rule="nonzero" fill="#ffffff" stroke="none" />
    <path d="M 234.41 100  C 224.75 100  217.16 92.41  217.16 82.75  C 217.16 73.09  224.75 65.5  234.41 65.5  C 244.07 65.5  251.66 73.09  251.66 82.75  C 251.66 92.41  244.07 100  234.41 100  " fill-rule="nonzero" fill="#cccccc" stroke="none" />
    <path d="M 53 239  L 53 136.7  L 131.5 90.2  L 241.4 167.301675977654  L 304.2 118.1  L 367 167.301675977654  L 367 239  L 53 239  " fill-rule="nonzero" fill="#169bd5" stroke="none" />
  </g>
</svg>