<?xml version="1.0" encoding="utf-8"?>
<svg version="1.1" xmlns:xlink="http://www.w3.org/1999/xlink" width="358px" height="194px" xmlns="http://www.w3.org/2000/svg">
  <g transform="matrix(1 0 0 1 -31 -518 )">
    <path d="M 31 518  L 389 518  L 389 712  L 31 712  L 31 518  " fill-rule="nonzero" fill="#cccccc" stroke="none" />
    <path d="M 45 532  L 375 532  L 375 698  L 45 698  L 45 532  " fill-rule="nonzero" fill="#ffffff" stroke="none" />
    <path d="M 231.71 576.2  C 223.562 576.2  217.16 569.798  217.16 561.65  C 217.16 553.502  223.562 547.1  231.71 547.1  C 239.858 547.1  246.26 553.502  246.26 561.65  C 246.26 569.798  239.858 576.2  231.71 576.2  " fill-rule="nonzero" fill="#cccccc" stroke="none" />
    <path d="M 50 693  L 50 607.2  L 130 568.2  L 242 642.278212290503  L 306 591.6  L 370 642.278212290503  L 370 693  L 50 693  " fill-rule="nonzero" fill="#169bd5" stroke="none" />
  </g>
</svg>