<?xml version="1.0" encoding="utf-8"?>
<svg version="1.1" xmlns:xlink="http://www.w3.org/1999/xlink" width="20px" height="20px" xmlns="http://www.w3.org/2000/svg">
  <g transform="matrix(1 0 0 1 -19 -239 )">
    <path d="M 29 239  C 34.6 239  39 243.4  39 249  C 39 254.6  34.6 259  29 259  C 23.4 259  19 254.6  19 249  C 19 243.4  23.4 239  29 239  Z " fill-rule="nonzero" fill="#f2f2f2" stroke="none" />
    <path d="M 29 239.5  C 34.32 239.5  38.5 243.68  38.5 249  C 38.5 254.32  34.32 258.5  29 258.5  C 23.68 258.5  19.5 254.32  19.5 249  C 19.5 243.68  23.68 239.5  29 239.5  Z " stroke-width="1" stroke="#797979" fill="none" />
  </g>
</svg>