<?xml version="1.0" encoding="utf-8"?>
<svg version="1.1" xmlns:xlink="http://www.w3.org/1999/xlink" width="148px" height="102px" xmlns="http://www.w3.org/2000/svg">
  <defs>
    <mask fill="white" id="clip1357">
      <path d="M 15 380  L 15 283  C 15 280.225  17.225 278  20 278  L 158 278  C 160.775 278  163 280.225  163 283  L 163 380  " fill-rule="evenodd" />
    </mask>
  </defs>
  <g transform="matrix(1 0 0 1 -15 -278 )">
    <path d="M 15 278  L 163 278  L 163 380  L 15 380  L 15 278  " fill-rule="nonzero" fill="#cccccc" stroke="none" mask="url(#clip1357)" />
    <path d="M 22 285  L 156 285  L 156 373  L 22 373  L 22 285  " fill-rule="nonzero" fill="#ffffff" stroke="none" mask="url(#clip1357)" />
    <path d="M 99.61 308.6  C 95.326 308.6  91.96 305.234  91.96 300.95  C 91.96 296.666  95.326 293.3  99.61 293.3  C 103.894 293.3  107.26 296.666  107.26 300.95  C 107.26 305.234  103.894 308.6  99.61 308.6  " fill-rule="nonzero" fill="#cccccc" stroke="none" mask="url(#clip1357)" />
    <path d="M 25 371  L 25 325.35  L 57.25 304.6  L 102.4 336.678378378378  L 128.2 317.05  L 154 336.678378378378  L 154 371  L 25 371  " fill-rule="nonzero" fill="#169bd5" stroke="none" mask="url(#clip1357)" />
  </g>
</svg>