<?xml version="1.0" encoding="utf-8"?>
<svg version="1.1" xmlns:xlink="http://www.w3.org/1999/xlink" width="238px" height="127px" xmlns="http://www.w3.org/2000/svg">
  <defs>
    <mask fill="white" id="clip1056">
      <path d="M 1 128  L 1 6  C 1 3.225  3.225 1  6 1  L 234 1  C 236.775 1  239 3.225  239 6  L 239 128  " fill-rule="evenodd" />
    </mask>
  </defs>
  <g transform="matrix(1 0 0 1 -1 -1 )">
    <path d="M 1 1  L 239 1  L 239 128  L 1 128  L 1 1  " fill-rule="nonzero" fill="#cccccc" stroke="none" mask="url(#clip1056)" />
    <path d="M 10 10  L 230 10  L 230 119  L 10 119  L 10 10  " fill-rule="nonzero" fill="#ffffff" stroke="none" mask="url(#clip1056)" />
    <path d="M 134.285 39.1  C 128.951 39.1  124.76 34.909  124.76 29.575  C 124.76 24.241  128.951 20.05  134.285 20.05  C 139.619 20.05  143.81 24.241  143.81 29.575  C 143.81 34.909  139.619 39.1  134.285 39.1  " fill-rule="nonzero" fill="#cccccc" stroke="none" mask="url(#clip1056)" />
    <path d="M 13 116  L 13 59.35  L 66.5 33.6  L 141.4 83.0226890756303  L 184.2 49.05  L 227 83.0226890756303  L 227 116  L 13 116  " fill-rule="nonzero" fill="#169bd5" stroke="none" mask="url(#clip1056)" />
  </g>
</svg>