<?xml version="1.0" encoding="utf-8"?>
<svg version="1.1" xmlns:xlink="http://www.w3.org/1999/xlink" width="238px" height="127px" xmlns="http://www.w3.org/2000/svg">
  <defs>
    <mask fill="white" id="clip1366">
      <path d="M 501 128  L 501 6  C 501 3.225  503.225 1  506 1  L 734 1  C 736.775 1  739 3.225  739 6  L 739 128  " fill-rule="evenodd" />
    </mask>
  </defs>
  <g transform="matrix(1 0 0 1 -501 -1 )">
    <path d="M 501 1  L 739 1  L 739 128  L 501 128  L 501 1  " fill-rule="nonzero" fill="#cccccc" stroke="none" mask="url(#clip1366)" />
    <path d="M 510 10  L 730 10  L 730 119  L 510 119  L 510 10  " fill-rule="nonzero" fill="#ffffff" stroke="none" mask="url(#clip1366)" />
    <path d="M 634.285 39.1  C 628.951 39.1  624.76 34.909  624.76 29.575  C 624.76 24.241  628.951 20.05  634.285 20.05  C 639.619 20.05  643.81 24.241  643.81 29.575  C 643.81 34.909  639.619 39.1  634.285 39.1  " fill-rule="nonzero" fill="#cccccc" stroke="none" mask="url(#clip1366)" />
    <path d="M 513 116  L 513 59.35  L 566.5 33.6  L 641.4 83.0226890756303  L 684.2 49.05  L 727 83.0226890756303  L 727 116  L 513 116  " fill-rule="nonzero" fill="#169bd5" stroke="none" mask="url(#clip1366)" />
  </g>
</svg>