<?xml version="1.0" encoding="utf-8"?>
<svg version="1.1" xmlns:xlink="http://www.w3.org/1999/xlink" width="138px" height="75px" xmlns="http://www.w3.org/2000/svg">
  <defs>
    <mask fill="white" id="clip315">
      <path d="M 181 671  L 181 601  C 181 598.225  183.225 596  186 596  L 314 596  C 316.775 596  319 598.225  319 601  L 319 671  " fill-rule="evenodd" />
    </mask>
  </defs>
  <g transform="matrix(1 0 0 1 -181 -596 )">
    <path d="M 181 596  L 319 596  L 319 671  L 181 671  L 181 596  " fill-rule="nonzero" fill="#cccccc" stroke="none" mask="url(#clip315)" />
    <path d="M 186 601  L 314 601  L 314 666  L 186 666  L 186 601  " fill-rule="nonzero" fill="#ffffff" stroke="none" mask="url(#clip315)" />
    <path d="M 258.385 618.5  C 255.235 618.5  252.76 616.025  252.76 612.875  C 252.76 609.725  255.235 607.25  258.385 607.25  C 261.535 607.25  264.01 609.725  264.01 612.875  C 264.01 616.025  261.535 618.5  258.385 618.5  " fill-rule="nonzero" fill="#cccccc" stroke="none" mask="url(#clip315)" />
    <path d="M 188 664  L 188 630.45  L 219 615.2  L 262.4 644.108695652174  L 287.2 624.35  L 312 644.108695652174  L 312 664  L 188 664  " fill-rule="nonzero" fill="#169bd5" stroke="none" mask="url(#clip315)" />
  </g>
</svg>