<?xml version="1.0" encoding="utf-8"?>
<svg version="1.1" xmlns:xlink="http://www.w3.org/1999/xlink" width="30px" height="30px" xmlns="http://www.w3.org/2000/svg">
  <g transform="matrix(1 0 0 1 -7 -202 )">
    <path d="M 22 202  C 30.4 202  37 208.6  37 217  C 37 225.4  30.4 232  22 232  C 13.6 232  7 225.4  7 217  C 7 208.6  13.6 202  22 202  Z " fill-rule="nonzero" fill="#f2f2f2" stroke="none" />
    <path d="M 22 202.5  C 30.12 202.5  36.5 208.88  36.5 217  C 36.5 225.12  30.12 231.5  22 231.5  C 13.88 231.5  7.5 225.12  7.5 217  C 7.5 208.88  13.88 202.5  22 202.5  Z " stroke-width="1" stroke="#797979" fill="none" />
  </g>
</svg>