<?xml version="1.0" encoding="utf-8"?>
<svg version="1.1" xmlns:xlink="http://www.w3.org/1999/xlink" width="100px" height="98px" xmlns="http://www.w3.org/2000/svg">
  <defs>
    <mask fill="white" id="clip239">
      <path d="M 16 149  C 13.225 149  11 146.775  11 144  L 11 56  C 11 53.225  13.225 51  16 51  L 111 51  L 111 149  " fill-rule="evenodd" />
    </mask>
  </defs>
  <g transform="matrix(1 0 0 1 -11 -51 )">
    <path d="M 11 51  L 111 51  L 111 149  L 11 149  L 11 51  " fill-rule="nonzero" fill="#cccccc" stroke="none" mask="url(#clip239)" />
    <path d="M 18 58  L 104 58  L 104 142  L 18 142  L 18 58  " fill-rule="nonzero" fill="#ffffff" stroke="none" mask="url(#clip239)" />
    <path d="M 70.35 80.4  C 66.234 80.4  63 77.166  63 73.05  C 63 68.934  66.234 65.7  70.35 65.7  C 74.466 65.7  77.7 68.934  77.7 73.05  C 77.7 77.166  74.466 80.4  70.35 80.4  " fill-rule="nonzero" fill="#cccccc" stroke="none" mask="url(#clip239)" />
    <path d="M 21 140  L 21 96.55  L 41.25 76.8  L 69.6 93.548  L 85.8 88.65  L 102 93.548  L 102 140  L 21 140  " fill-rule="nonzero" fill="#169bd5" stroke="none" mask="url(#clip239)" />
  </g>
</svg>