<?xml version="1.0" encoding="utf-8"?>
<svg version="1.1" xmlns:xlink="http://www.w3.org/1999/xlink" width="148px" height="179px" xmlns="http://www.w3.org/2000/svg">
  <defs>
    <mask fill="white" id="clip870">
      <path d="M 1 180  L 1 6  C 1 3.225  3.225 1  6 1  L 144 1  C 146.775 1  149 3.225  149 6  L 149 180  " fill-rule="evenodd" />
    </mask>
  </defs>
  <g transform="matrix(1 0 0 1 -1 -1 )">
    <path d="M 1 1  L 149 1  L 149 180  L 1 180  L 1 1  " fill-rule="nonzero" fill="#cccccc" stroke="none" mask="url(#clip870)" />
    <path d="M 11 11  L 139 11  L 139 170  L 11 170  L 11 11  " fill-rule="nonzero" fill="#ffffff" stroke="none" mask="url(#clip870)" />
    <path d="M 89.06 50.05  C 82.844 50.05  77.96 45.166  77.96 38.95  C 77.96 32.734  82.844 27.85  89.06 27.85  C 95.276 27.85  100.16 32.734  100.16 38.95  C 100.16 45.166  95.276 50.05  89.06 50.05  " fill-rule="nonzero" fill="#cccccc" stroke="none" mask="url(#clip870)" />
    <path d="M 15 167  L 15 83.4  L 45.25 45.4  L 87.6 75.8  L 111.8 68.2  L 136 75.8  L 136 167  L 15 167  " fill-rule="nonzero" fill="#169bd5" stroke="none" mask="url(#clip870)" />
  </g>
</svg>