<?xml version="1.0" encoding="utf-8"?>
<svg version="1.1" xmlns:xlink="http://www.w3.org/1999/xlink" width="300px" height="160px" xmlns="http://www.w3.org/2000/svg">
  <g transform="matrix(1 0 0 1 -20 -710 )">
    <path d="M 20 710  L 320 710  L 320 870  L 20 870  L 20 710  " fill-rule="nonzero" fill="#cccccc" stroke="none" />
    <path d="M 31 721  L 309 721  L 309 859  L 31 859  L 31 721  " fill-rule="nonzero" fill="#ffffff" stroke="none" />
    <path d="M 188 758  C 181.28 758  176 752.72  176 746  C 176 739.28  181.28 734  188 734  C 194.72 734  200 739.28  200 746  C 200 752.72  194.72 758  188 758  " fill-rule="nonzero" fill="#cccccc" stroke="none" />
    <path d="M 35 855  L 35 783.5  L 102.5 751  L 197 813.4  L 251 770.5  L 305 813.4  L 305 855  L 35 855  " fill-rule="nonzero" fill="#169bd5" stroke="none" />
  </g>
</svg>