<?xml version="1.0" encoding="utf-8"?>
<svg version="1.1" xmlns:xlink="http://www.w3.org/1999/xlink" width="20px" height="20px" xmlns="http://www.w3.org/2000/svg">
  <g transform="matrix(1 0 0 1 -335 -175 )">
    <path d="M 343.118131381105 182.409830056251  L 345 176.61803398875  L 346.881868618895 182.409830056251  L 352.971723394364 182.409830056251  L 348.044927387734 185.989356881874  L 349.92679600663 191.781152949375  L 345 188.201626123751  L 340.07320399337 191.781152949375  L 341.955072612266 185.989356881874  L 337.028276605636 182.409830056251  L 343.118131381105 182.409830056251  Z " fill-rule="nonzero" fill="#f2f2f2" stroke="none" />
    <path d="M 342.754860117102 181.909830056251  L 345 175  L 347.245139882898 181.909830056251  L 354.510565162952 181.909830056251  L 348.632712640027 186.180339887499  L 350.877852522925 193.090169943749  L 345 188.819660112501  L 339.122147477075 193.090169943749  L 341.367287359973 186.180339887499  L 335.489434837048 181.909830056251  L 342.754860117102 181.909830056251  Z M 345 178.2360679775  L 343.481402645107 182.909830056251  L 338.567118374224 182.909830056251  L 342.542857864558 185.798373876249  L 341.024260509666 190.472135955  L 345 187.583592135001  L 348.975739490334 190.472135955  L 347.457142135442 185.798373876249  L 351.432881625776 182.909830056251  L 346.518597354893 182.909830056251  L 345 178.2360679775  Z " fill-rule="nonzero" fill="#797979" stroke="none" />
  </g>
</svg>