<?xml version="1.0" encoding="utf-8"?>
<svg version="1.1" xmlns:xlink="http://www.w3.org/1999/xlink" width="50px" height="50px" xmlns="http://www.w3.org/2000/svg">
  <g transform="matrix(1 0 0 1 -155 -34 )">
    <path d="M 180 34  C 194 34  205 45  205 59  C 205 73  194 84  180 84  C 166 84  155 73  155 59  C 155 45  166 34  180 34  Z " fill-rule="nonzero" fill="#ffffff" stroke="none" />
    <path d="M 180 34.5  C 193.72 34.5  204.5 45.28  204.5 59  C 204.5 72.72  193.72 83.5  180 83.5  C 166.28 83.5  155.5 72.72  155.5 59  C 155.5 45.28  166.28 34.5  180 34.5  Z " stroke-width="1" stroke="#797979" fill="none" />
  </g>
</svg>