<?xml version="1.0" encoding="utf-8"?>
<svg version="1.1" xmlns:xlink="http://www.w3.org/1999/xlink" width="358px" height="190px" xmlns="http://www.w3.org/2000/svg">
  <g transform="matrix(1 0 0 1 -31 -31 )">
    <path d="M 31 31  L 389 31  L 389 221  L 31 221  L 31 31  " fill-rule="nonzero" fill="#cccccc" stroke="none" />
    <path d="M 44 44  L 376 44  L 376 208  L 44 208  L 44 44  " fill-rule="nonzero" fill="#ffffff" stroke="none" />
    <path d="M 231.41 88  C 223.43 88  217.16 81.73  217.16 73.75  C 217.16 65.77  223.43 59.5  231.41 59.5  C 239.39 59.5  245.66 65.77  245.66 73.75  C 245.66 81.73  239.39 88  231.41 88  " fill-rule="nonzero" fill="#cccccc" stroke="none" />
    <path d="M 49 203  L 49 118.3  L 129.5 79.8  L 242.2 153.960893854749  L 306.6 102.9  L 371 153.960893854749  L 371 203  L 49 203  " fill-rule="nonzero" fill="#169bd5" stroke="none" />
  </g>
</svg>