<?xml version="1.0" encoding="utf-8"?>
<svg version="1.1" xmlns:xlink="http://www.w3.org/1999/xlink" width="50px" height="50px" xmlns="http://www.w3.org/2000/svg">
  <g transform="matrix(1 0 0 1 -60 -200 )">
    <path d="M 60 200  L 110 200  L 110 250  L 60 250  L 60 200  " fill-rule="nonzero" fill="#cccccc" stroke="none" />
    <path d="M 64 204  L 106 204  L 106 246  L 64 246  L 64 204  " fill-rule="nonzero" fill="#ffffff" stroke="none" />
    <path d="M 89.75 215  C 87.65 215  86 213.35  86 211.25  C 86 209.15  87.65 207.5  89.75 207.5  C 91.85 207.5  93.5 209.15  93.5 211.25  C 93.5 213.35  91.85 215  89.75 215  " fill-rule="nonzero" fill="#cccccc" stroke="none" />
    <path d="M 66 245  L 66 223.55  L 75.75 213.8  L 89.4 221.6  L 97.2 219.65  L 105 221.6  L 105 245  L 66 245  " fill-rule="nonzero" fill="#169bd5" stroke="none" />
  </g>
</svg>