<?xml version="1.0" encoding="utf-8"?>
<svg version="1.1" xmlns:xlink="http://www.w3.org/1999/xlink" width="80px" height="98px" xmlns="http://www.w3.org/2000/svg">
  <g transform="matrix(1 0 0 1 -40 -85 )">
    <path d="M 40 85  L 120 85  L 120 183  L 40 183  L 40 85  " fill-rule="nonzero" fill="#cccccc" stroke="none" />
    <path d="M 46 91  L 114 91  L 114 177  L 46 177  L 46 91  " fill-rule="nonzero" fill="#ffffff" stroke="none" />
    <path d="M 87.6 111.7  C 84.24 111.7  81.6 109.06  81.6 105.7  C 81.6 102.34  84.24 99.7  87.6 99.7  C 90.96 99.7  93.6 102.34  93.6 105.7  C 93.6 109.06  90.96 111.7  87.6 111.7  " fill-rule="nonzero" fill="#cccccc" stroke="none" />
    <path d="M 48 175  L 48 129.9  L 64 109.4  L 86.4 125.8  L 99.2 121.7  L 112 125.8  L 112 175  L 48 175  " fill-rule="nonzero" fill="#169bd5" stroke="none" />
  </g>
</svg>