<?xml version="1.0" encoding="utf-8"?>
<svg version="1.1" xmlns:xlink="http://www.w3.org/1999/xlink" width="358px" height="170px" xmlns="http://www.w3.org/2000/svg">
  <g transform="matrix(1 0 0 1 -31 -31 )">
    <path d="M 31 31  L 389 31  L 389 201  L 31 201  L 31 31  " fill-rule="nonzero" fill="#cccccc" stroke="none" />
    <path d="M 43 43  L 377 43  L 377 189  L 43 189  L 43 43  " fill-rule="nonzero" fill="#ffffff" stroke="none" />
    <path d="M 229.91 82  C 222.77 82  217.16 76.39  217.16 69.25  C 217.16 62.11  222.77 56.5  229.91 56.5  C 237.05 56.5  242.66 62.11  242.66 69.25  C 242.66 76.39  237.05 82  229.91 82  " fill-rule="nonzero" fill="#cccccc" stroke="none" />
    <path d="M 48 185  L 48 109.65  L 129.25 75.4  L 243 145.966480446927  L 308 95.95  L 373 145.966480446927  L 373 185  L 48 185  " fill-rule="nonzero" fill="#169bd5" stroke="none" />
  </g>
</svg>