<?xml version="1.0" encoding="utf-8"?>
<svg version="1.1" xmlns:xlink="http://www.w3.org/1999/xlink" width="20px" height="20px" xmlns="http://www.w3.org/2000/svg">
  <g transform="matrix(1 0 0 1 -310 -221 )">
    <path d="M 318.118131381105 228.409830056251  L 320 222.61803398875  L 321.881868618895 228.409830056251  L 327.971723394364 228.409830056251  L 323.044927387734 231.989356881874  L 324.92679600663 237.781152949375  L 320 234.201626123751  L 315.07320399337 237.781152949375  L 316.955072612266 231.989356881874  L 312.028276605636 228.409830056251  L 318.118131381105 228.409830056251  Z " fill-rule="nonzero" fill="#ffffff" stroke="none" />
    <path d="M 317.754860117102 227.909830056251  L 320 221  L 322.245139882898 227.909830056251  L 329.510565162952 227.909830056251  L 323.632712640027 232.180339887499  L 325.877852522925 239.090169943749  L 320 234.819660112501  L 314.122147477075 239.090169943749  L 316.367287359973 232.180339887499  L 310.489434837048 227.909830056251  L 317.754860117102 227.909830056251  Z M 320 224.2360679775  L 318.481402645107 228.909830056251  L 313.567118374224 228.909830056251  L 317.542857864558 231.798373876249  L 316.024260509666 236.472135955  L 320 233.583592135001  L 323.975739490334 236.472135955  L 322.457142135442 231.798373876249  L 326.432881625776 228.909830056251  L 321.518597354893 228.909830056251  L 320 224.2360679775  Z " fill-rule="nonzero" fill="#cccccc" stroke="none" />
  </g>
</svg>