<?xml version="1.0" encoding="utf-8"?>
<svg version="1.1" xmlns:xlink="http://www.w3.org/1999/xlink" width="70px" height="92px" xmlns="http://www.w3.org/2000/svg">
  <g transform="matrix(1 0 0 1 -60 -378 )">
    <path d="M 60 378  L 130 378  L 130 470  L 60 470  L 60 378  " fill-rule="nonzero" fill="#cccccc" stroke="none" />
    <path d="M 65 383  L 125 383  L 125 465  L 65 465  L 65 383  " fill-rule="nonzero" fill="#ffffff" stroke="none" />
    <path d="M 101.65 402.3  C 98.71 402.3  96.4 399.99  96.4 397.05  C 96.4 394.11  98.71 391.8  101.65 391.8  C 104.59 391.8  106.9 394.11  106.9 397.05  C 106.9 399.99  104.59 402.3  101.65 402.3  " fill-rule="nonzero" fill="#cccccc" stroke="none" />
    <path d="M 67 463  L 67 420.1  L 81 400.6  L 100.6 416.2  L 111.8 412.3  L 123 416.2  L 123 463  L 67 463  " fill-rule="nonzero" fill="#169bd5" stroke="none" />
  </g>
</svg>