<?xml version="1.0" encoding="utf-8"?>
<svg version="1.1" xmlns:xlink="http://www.w3.org/1999/xlink" width="150px" height="94px" xmlns="http://www.w3.org/2000/svg">
  <g transform="matrix(1 0 0 1 -20 -115 )">
    <path d="M 20 115  L 170 115  L 170 209  L 20 209  L 20 115  " fill-rule="nonzero" fill="#cccccc" stroke="none" />
    <path d="M 27 122  L 163 122  L 163 202  L 27 202  L 27 122  " fill-rule="nonzero" fill="#ffffff" stroke="none" />
    <path d="M 105.05 143.2  C 101.102 143.2  98 140.098  98 136.15  C 98 132.202  101.102 129.1  105.05 129.1  C 108.998 129.1  112.1 132.202  112.1 136.15  C 112.1 140.098  108.998 143.2  105.05 143.2  " fill-rule="nonzero" fill="#cccccc" stroke="none" />
    <path d="M 30 200  L 30 158.75  L 62.75 140  L 108.6 171.8  L 134.8 151.25  L 161 171.8  L 161 200  L 30 200  " fill-rule="nonzero" fill="#169bd5" stroke="none" />
  </g>
</svg>