<?xml version="1.0" encoding="utf-8"?>
<svg version="1.1" xmlns:xlink="http://www.w3.org/1999/xlink" width="12px" height="12px" viewBox="85 350  12 12" xmlns="http://www.w3.org/2000/svg">
  <path d="M 91 350  C 94.36 350  97 352.64  97 356  C 97 359.36  94.36 362  91 362  C 87.64 362  85 359.36  85 356  C 85 352.64  87.64 350  91 350  Z " fill-rule="nonzero" fill="#ffffff" stroke="none" />
  <path d="M 91 350.5  C 94.08 350.5  96.5 352.92  96.5 356  C 96.5 359.08  94.08 361.5  91 361.5  C 87.92 361.5  85.5 359.08  85.5 356  C 85.5 352.92  87.92 350.5  91 350.5  Z " stroke-width="1" stroke="#797979" fill="none" />
  <path d="M 91 359  C 89.32 359  88 357.68  88 356  C 88 354.32  89.32 353  91 353  C 92.68 353  94 354.32  94 356  C 94 357.68  92.68 359  91 359  " fill-rule="nonzero" fill="#797979" stroke="none" />
</svg>