<?xml version="1.0" encoding="utf-8"?>
<svg version="1.1" xmlns:xlink="http://www.w3.org/1999/xlink" width="12px" height="12px" viewBox="161 8  12 12" xmlns="http://www.w3.org/2000/svg">
  <path d="M 167 8  C 170.36 8  173 10.64  173 14  C 173 17.36  170.36 20  167 20  C 163.64 20  161 17.36  161 14  C 161 10.64  163.64 8  167 8  Z " fill-rule="nonzero" fill="#ffffff" stroke="none" />
  <path d="M 167 8.5  C 170.08 8.5  172.5 10.92  172.5 14  C 172.5 17.08  170.08 19.5  167 19.5  C 163.92 19.5  161.5 17.08  161.5 14  C 161.5 10.92  163.92 8.5  167 8.5  Z " stroke-width="1" stroke="#797979" fill="none" />
  <path d="M 167 17  C 165.32 17  164 15.68  164 14  C 164 12.32  165.32 11  167 11  C 168.68 11  170 12.32  170 14  C 170 15.68  168.68 17  167 17  " fill-rule="nonzero" fill="#797979" stroke="none" />
</svg>