<?xml version="1.0" encoding="utf-8"?>
<svg version="1.1" xmlns:xlink="http://www.w3.org/1999/xlink" width="12px" height="12px" viewBox="84 8  12 12" xmlns="http://www.w3.org/2000/svg">
  <path d="M 90 8  C 93.36 8  96 10.64  96 14  C 96 17.36  93.36 20  90 20  C 86.64 20  84 17.36  84 14  C 84 10.64  86.64 8  90 8  Z " fill-rule="nonzero" fill="#ffffff" stroke="none" />
  <path d="M 90 8.5  C 93.08 8.5  95.5 10.92  95.5 14  C 95.5 17.08  93.08 19.5  90 19.5  C 86.92 19.5  84.5 17.08  84.5 14  C 84.5 10.92  86.92 8.5  90 8.5  Z " stroke-width="1" stroke="#797979" fill="none" />
  <path d="M 90 17  C 88.32 17  87 15.68  87 14  C 87 12.32  88.32 11  90 11  C 91.68 11  93 12.32  93 14  C 93 15.68  91.68 17  90 17  " fill-rule="nonzero" fill="#797979" stroke="none" />
</svg>