<?xml version="1.0" encoding="utf-8"?>
<svg version="1.1" xmlns:xlink="http://www.w3.org/1999/xlink" width="12px" height="12px" viewBox="84 10  12 12" xmlns="http://www.w3.org/2000/svg">
  <path d="M 90 10  C 93.36 10  96 12.64  96 16  C 96 19.36  93.36 22  90 22  C 86.64 22  84 19.36  84 16  C 84 12.64  86.64 10  90 10  Z " fill-rule="nonzero" fill="#ffffff" stroke="none" />
  <path d="M 90 10.5  C 93.08 10.5  95.5 12.92  95.5 16  C 95.5 19.08  93.08 21.5  90 21.5  C 86.92 21.5  84.5 19.08  84.5 16  C 84.5 12.92  86.92 10.5  90 10.5  Z " stroke-width="1" stroke="#797979" fill="none" />
  <path d="M 90 19  C 88.32 19  87 17.68  87 16  C 87 14.32  88.32 13  90 13  C 91.68 13  93 14.32  93 16  C 93 17.68  91.68 19  90 19  " fill-rule="nonzero" fill="#797979" stroke="none" />
</svg>